<svg t="1503200122269" class="icon" style="" viewBox="0 0 1024 1024" version="1.1"
     xmlns="http://www.w3.org/2000/svg" p-id="3771" xmlns:xlink="http://www.w3.org/1999/xlink"
     width="12" height="11">
    <defs>
        <style type="text/css"></style>
    </defs>
    <path
            d="M701.829951 62.881143l-377.262296 0c-31.616068 0-67.047022 21.204951-67.047022 52.874231l0 783.603885c0 31.66928 35.430954 61.759599 67.047022 61.759599l377.262296 0c31.66928 0 64.647369-30.088272 64.647369-61.759599L766.47732 115.756397C766.47732 84.086094 733.500255 62.881143 701.829951 62.881143M496.872976 122.487705l89.887216 0 0 29.979802-89.887216 0L496.872976 122.487705 496.872976 122.487705zM437.021843 122.487705l29.981848 0 0 29.979802-29.981848 0L437.021843 122.487705zM512.082376 931.303808c-24.856108 0-44.918026-20.087501-44.918026-44.944632 0-24.829502 20.060895-44.914956 44.918026-44.914956 24.800849 0 44.917002 20.085454 44.917002 44.914956C556.998355 911.216307 536.883225 931.303808 512.082376 931.303808M706.02653 810.999838 317.046355 810.999838 317.046355 211.146954l388.980175 0L706.02653 810.999838z"
            p-id="3772"></path>
</svg>