<?xml version="1.0" standalone="no"?><!DOCTYPE svg PUBLIC "-//W3C//DTD SVG 1.1//EN" "http://www.w3.org/Graphics/SVG/1.1/DTD/svg11.dtd"><svg t="1534684918123" class="icon" style="" viewBox="0 0 1229 1024" version="1.1" xmlns="http://www.w3.org/2000/svg" p-id="2230" xmlns:xlink="http://www.w3.org/1999/xlink" width="780.0390625" height="650"><defs><style type="text/css"></style></defs><path d="M0.025174 5.9816 0.025174 1003.772682 1228.072428 1003.772682 1228.072428 5.9816 0.025174 5.9816 0.025174 5.9816 0.025174 5.9816ZM1151.320781 927.019802 76.776822 927.019802 76.776822 82.734476 1151.320781 82.734476 1151.320781 927.019802 1151.320781 927.019802 1151.320781 927.019802ZM844.303135 274.620352C844.303135 338.183631 895.834788 389.744756 959.436134 389.744756 1023.037476 389.744756 1074.569134 338.182403 1074.569134 274.620352 1074.569134 211.020234 1023.037476 159.487353 959.436134 159.487353 895.834788 159.487353 844.303135 211.026374 844.303135 274.620352L844.303135 274.620352 844.303135 274.620352ZM1074.567905 850.269384 153.527243 850.269384 383.787101 236.239001 690.797379 620.010752 844.303135 504.877752 1074.567905 850.269384 1074.567905 850.269384 1074.567905 850.269384Z" p-id="2231"></path></svg>
