<svg t="1551428641412" class="icon" style="" viewBox="0 0 1024 1024" version="1.1" xmlns="http://www.w3.org/2000/svg" p-id="3066" xmlns:xlink="http://www.w3.org/1999/xlink" width="200" height="200"><defs><style type="text/css"></style></defs><path d="M448 864C218.6 864 32 677.4 32 448S218.6 32 448 32s416 186.6 416 416-186.6 416-416 416z m0-768C253.9 96 96 253.9 96 448s157.9 352 352 352 352-157.9 352-352S642.1 96 448 96z"  p-id="3067"></path><path d="M960 992c-8.2 0-16.4-3.1-22.6-9.4l-224-224c-12.5-12.5-12.5-32.8 0-45.3s32.8-12.5 45.3 0l224 224c12.5 12.5 12.5 32.8 0 45.3-6.3 6.3-14.5 9.4-22.7 9.4z"  p-id="3068"></path></svg>
