<?xml version="1.0" standalone="no"?><!DOCTYPE svg PUBLIC "-//W3C//DTD SVG 1.1//EN" "http://www.w3.org/Graphics/SVG/1.1/DTD/svg11.dtd"><svg t="1507801345281" class="icon" style="" viewBox="0 0 1024 1024" version="1.1" xmlns="http://www.w3.org/2000/svg" p-id="2354" xmlns:xlink="http://www.w3.org/1999/xlink" width="200" height="200"><defs><style type="text/css"></style></defs><path d="M851.94 882.898l-85.55-41.248c-12.222 3.056-24.442 6.11-36.664 7.638-16.804 3.056-33.608 4.584-50.414 4.584-25.97 0-51.94-3.056-76.384-9.166-1.528 0-3.056-1.528-4.584-1.528-48.886-12.222-93.188-33.608-128.324-64.162-22.916-19.86-42.774-44.302-58.052-70.272-4.584 0-10.694 0-16.804 0-19.86 0-39.72-1.528-59.58-4.584-15.276-1.528-29.026-4.584-44.302-9.166l-105.41 50.414-67.218 32.082 21.388-71.8 21.388-74.856c-32.082-25.97-59.58-54.996-79.44-90.132-22.916-39.72-35.136-85.55-35.136-132.908 0-84.022 39.72-158.878 103.882-213.874 62.634-53.468 149.712-85.55 244.428-85.55 93.188 0 180.266 32.082 242.9 85.55 47.358 39.72 80.966 91.66 96.244 149.712 59.58 9.166 111.52 33.608 152.768 68.746 56.524 45.83 90.132 111.52 90.132 183.32 0 41.248-10.694 79.44-30.554 114.576-16.804 27.498-38.192 53.468-64.162 74.856l16.804 59.58 21.388 71.8L851.94 882.898 851.94 882.898zM291.282 274.884c-24.442 0-42.774 19.86-42.774 42.774 0 24.442 18.332 42.774 42.774 42.774 22.916 0 42.774-18.332 42.774-42.774C334.058 294.744 314.198 274.884 291.282 274.884L291.282 274.884zM497.518 274.884c-22.916 0-42.774 19.86-42.774 42.774 0 24.442 19.86 42.774 42.774 42.774 24.442 0 42.774-18.332 42.774-42.774C540.294 294.744 521.962 274.884 497.518 274.884L497.518 274.884zM599.874 496.396c-18.332 0-32.082 15.276-32.082 33.608s13.75 32.082 32.082 32.082 33.608-13.75 33.608-32.082S618.206 496.396 599.874 496.396L599.874 496.396zM769.444 496.396c-18.332 0-32.082 15.276-32.082 33.608s13.75 32.082 32.082 32.082 33.608-13.75 33.608-32.082S787.776 496.396 769.444 496.396L769.444 496.396zM396.692 675.134c-9.166-24.442-13.75-51.94-13.75-79.44 0-71.8 33.608-137.49 87.078-183.32 54.996-45.83 128.324-73.328 209.292-73.328 6.11 0 12.222 0 18.332 0-35.136-113.048-157.35-197.07-302.48-197.07-174.154 0-314.7 119.158-314.7 265.816 0 85.55 45.83 160.406 119.158 209.292l-27.498 97.772 116.104-54.996c33.608 9.166 70.272 15.276 106.938 15.276L396.692 675.136 396.692 675.134zM440.994 690.412c1.528 1.528 1.528 1.528 1.528 3.056l1.528 1.528c0 0 0 1.528 1.528 1.528l0 1.528 0 0c1.528 3.056 1.528 4.584 3.056 6.11l0 0c32.082 50.414 87.078 87.078 151.24 105.41 4.584 1.528 10.694 3.056 15.276 3.056 21.388 4.584 42.774 7.638 64.162 7.638 32.082 0 61.106-6.11 90.132-13.75l97.772 47.358-24.442-82.494c61.106-41.248 100.826-103.882 100.826-175.682 0-105.41-87.078-194.014-203.18-216.93-1.528-1.528-1.528-1.528-3.056-1.528-1.528 0-1.528 0-3.056 0-1.528 0-1.528 0-3.056-1.528-1.528 0-3.056 0-4.584 0l-1.528 0c-1.528 0-3.056 0-4.584-1.528l-1.528 0c-1.528 0-4.584 0-6.11 0l0 0c-10.694-1.528-22.916-1.528-33.608-1.528-146.656 0-262.76 99.298-262.76 223.04 0 27.498 6.11 54.996 16.804 79.44l0 1.528c1.528 0 1.528 1.528 1.528 3.056l1.528 0c0 1.528 0 3.056 1.528 3.056l0 1.528c0 1.528 1.528 1.528 1.528 3.056l1.528 1.528L440.994 690.412z" p-id="2355"></path></svg>