<?xml version="1.0" standalone="no"?><!DOCTYPE svg PUBLIC "-//W3C//DTD SVG 1.1//EN" "http://www.w3.org/Graphics/SVG/1.1/DTD/svg11.dtd"><svg class="icon" width="150px" height="150.00px" viewBox="0 0 1024 1024" version="1.1" xmlns="http://www.w3.org/2000/svg"><path fill="#ffffff" d="M465.2032 439.3984l-20.48 0c-5.632 0-10.24 4.608-10.24 10.24l0 20.2752c0 5.632 4.608 10.24 10.24 10.24l20.48 0c5.632 0 10.24-4.608 10.24-10.24l0-20.2752C475.4432 444.0064 470.9376 439.3984 465.2032 439.3984zM580.4032 439.296l-20.48 0c-5.632 0-10.24 4.608-10.24 10.24l0 20.48c0 5.632 4.608 10.24 10.24 10.24l20.48 0c5.632 0 10.24-4.608 10.24-10.24l0-20.48C590.6432 443.904 586.1376 439.296 580.4032 439.296zM465.2032 324.608l-20.48 0c-5.632 0-10.24 4.608-10.24 10.24l0 20.48c0 5.632 4.608 10.24 10.24 10.24l20.48 0c5.632 0 10.24-4.608 10.24-10.24l0-20.48C475.4432 329.216 470.9376 324.608 465.2032 324.608zM580.4032 324.608l-20.48 0c-5.632 0-10.24 4.608-10.24 10.24l0 20.48c0 5.632 4.608 10.24 10.24 10.24l20.48 0c5.632 0 10.24-4.608 10.24-10.24l0-20.48C590.6432 329.216 586.1376 324.608 580.4032 324.608zM778.24 383.2832l-83.2512 0L694.9888 250.88c0-16.896-13.824-30.72-30.72-30.72L359.6288 220.16c-16.896 0-30.72 13.824-30.72 30.72l0 132.4032L245.76 383.2832c-22.528 0-40.96 18.432-40.96 40.96l0 369.8688 0.1024 0c0.3072 5.4272 4.7104 9.728 10.1376 9.728 5.4272 0 9.8304-4.3008 10.1376-9.728l0.1024 0L225.28 661.1968l573.44 0L798.72 793.6c0 5.632 4.608 10.24 10.24 10.24 5.632 0 10.24-4.608 10.24-10.24L819.2 424.2432C819.2 401.7152 800.768 383.2832 778.24 383.2832zM778.24 403.7632c11.264 0 20.48 9.216 20.48 20.48L798.72 564.224 694.9888 564.224 694.9888 403.7632 778.24 403.7632zM349.3888 250.88c0-5.632 4.608-10.24 10.24-10.24l304.64 0c5.632 0 10.24 4.608 10.24 10.24l0 313.344L349.3888 564.224 349.3888 250.88zM245.76 403.7632l83.1488 0L328.9088 564.224 225.28 564.224 225.28 424.2432C225.28 412.9792 234.496 403.7632 245.76 403.7632zM225.28 640.7168 225.28 584.704l103.6288 0 366.08 0L798.72 584.704l0 56.0128L225.28 640.7168z" /></svg>