<?xml version="1.0" encoding="UTF-8"?>
<!DOCTYPE svg PUBLIC "-//W3C//DTD SVG 1.1//EN" "http://www.w3.org/Graphics/SVG/1.1/DTD/svg11.dtd">
<svg version="1.2" xmlns="http://www.w3.org/2000/svg" xmlns:xlink="http://www.w3.org/1999/xlink" x="0" y="0" width="649" height="508" viewBox="0 0 649 508">
<style type="text/css"><![CDATA[
text { font:12px Dialog; }
]]></style>
<rect x="-946" y="-1124" width="2980" height="2564" style="fill:rgb(243,244,249);stroke:none" />
<clipPath id="clip1"><path d="M149,15 L639,15 L639,297 L149,297 Z M158,122 C153.5817261,122 150,125.5817184 150,130 L150,178 C150,182.4182739 153.5817261,186 158,186 L330,186 C334.4182739,186 338,182.4182739 338,178 L338,130 C338,125.5817184 334.4182739,122 330,122 Z" /></clipPath>
<path d="M269.7060852,122 L339,35.7399979" style="fill:none;stroke:rgb(128,128,128)" clip-path="url(#clip1)" />
<clipPath id="clip2"><path d="M149,15 L639,15 L639,297 L149,297 Z M158,122 C153.5817261,122 150,125.5817184 150,130 L150,178 C150,182.4182739 153.5817261,186 158,186 L330,186 C334.4182739,186 338,182.4182739 338,178 L338,130 C338,125.5817184 334.4182739,122 330,122 Z" /></clipPath>
<path d="M338,124.5635605 L392,107.6532669" style="fill:none;stroke:rgb(128,128,128)" clip-path="url(#clip2)" />
<clipPath id="clip3"><path d="M149,15 L639,15 L639,297 L149,297 Z M158,122 C153.5817261,122 150,125.5817184 150,130 L150,178 C150,182.4182739 153.5817261,186 158,186 L330,186 C334.4182739,186 338,182.4182739 338,178 L338,130 C338,125.5817184 334.4182739,122 330,122 Z" /></clipPath>
<path d="M338,181.7984772 L395,198.6549988" style="fill:none;stroke:rgb(128,128,128)" clip-path="url(#clip3)" />
<clipPath id="clip4"><path d="M149,15 L639,15 L639,297 L149,297 Z M158,122 C153.5817261,122 150,125.5817184 150,130 L150,178 C150,182.4182739 153.5817261,186 158,186 L330,186 C334.4182739,186 338,182.4182739 338,178 L338,130 C338,125.5817184 334.4182739,122 330,122 Z" /></clipPath>
<path d="M268.725647,186 L338,275.6549988" style="fill:none;stroke:rgb(128,128,128)" clip-path="url(#clip4)" />
<clipPath id="clip5"><path d="M148,120 L341,120 L341,189 L148,189 L148,120 Z" /></clipPath>
<path d="M158,122 C153.5817261,122 150,125.5817184 150,130 L150,178 C150,182.4182739 153.5817261,186 158,186 L330,186 C334.4182739,186 338,182.4182739 338,178 L338,130 C338,125.5817184 334.4182739,122 330,122 Z" style="fill:rgb(151,203,255);stroke:none" clip-path="url(#clip5)" />
<clipPath id="clip6"><path d="M148,120 L341,120 L341,189 L148,189 L148,120 Z" /></clipPath>
<path d="M158,122 C153.5817261,122 150,125.5817184 150,130 L150,178 C150,182.4182739 153.5817261,186 158,186 L330,186 C334.4182739,186 338,182.4182739 338,178 L338,130 C338,125.5817184 334.4182739,122 330,122 Z" style="fill:none;stroke:rgb(128,128,128)" clip-path="url(#clip6)" />
<clipPath id="clip7"><path d="M180,136 L309,136 L309,173 L180,173 L180,136 Z" /></clipPath>
<path d="M194.484375,146.953125 L201.234375,146.953125 L201.234375,142.921875 L204.5859375,142.921875 L204.5859375,146.953125 L206.7421875,146.953125 L206.7421875,150.046875 L204.5859375,150.046875 L204.5859375,162.0234375 C204.5859375,163.1879883 204.3303223,164.0705566 203.8183594,164.671875 C203.3071289,165.2739258 202.6171875,165.6035156 201.75,165.6621094 C200.8828125,165.7207031 199.21875,165.75 196.7578125,165.75 C196.6018066,164.7033691 196.3439941,163.546875 195.984375,162.28125 C197.1877441,162.3757324 198.3867188,162.4226074 199.5820313,162.421875 C200.6835938,162.4226074 201.234375,161.9150391 201.234375,160.8984375 L201.234375,150.046875 L194.484375,150.046875 Z M186.28125,148.6875 L189.3867188,153.421875 C189.9960938,151.6801758 190.4143066,149.7978516 190.640625,147.7734375 L183.75,147.7734375 L183.75,144.703125 L193.921875,144.703125 L193.921875,147.7265625 C193.4458008,150.9931641 192.6291504,153.9418945 191.4726563,156.5742188 L194.9296875,161.7890625 L192.0234375,163.6875 L189.7265625,159.9140625 C188.4455566,161.9772949 186.9067383,163.8046875 185.109375,165.3984375 C184.6567383,164.4770508 184.078125,163.4296875 183.375,162.2578125 C185.1958008,160.7116699 186.684082,158.9106445 187.8398438,156.8554688 L183.7265625,150.3046875 Z M196.03125,151.40625 C197.5473633,153.3288574 198.9536133,155.2272949 200.25,157.1015625 L197.4609375,158.9296875 C196.2890625,156.9301758 195,154.9694824 193.59375,153.046875 Z M215.0039063,142.828125 L218.6835938,142.828125 C218.3085938,143.3444824 217.9145508,143.8447266 217.5,144.328125 L226.5117188,144.328125 L226.5117188,146.4609375 L224.6601563,147.9609375 L230.0507813,147.9609375 L230.0507813,153.9609375 L228.3515625,153.9609375 L229.7695313,156 L226.4179688,157.5585938 C227.746582,159.8012695 229.4179688,161.5319824 231.4335938,162.75 C230.4023438,163.6567383 229.5585938,164.4609375 228.9023438,165.1640625 C227.0588379,163.640625 225.4299316,161.4697266 224.015625,158.6484375 L222.9492188,159.1171875 C223.2854004,160.1337891 223.453125,161.1254883 223.453125,162.09375 C223.453125,163.3989258 222.0080566,164.6879883 219.1171875,165.9609375 L215.5429688,165.9609375 C215.3635254,165.2270508 215.1445313,164.4375 214.8867188,163.59375 C213.2460938,164.4301758 211.4106445,165.1801758 209.3789063,165.84375 C209.0507813,165.09375 208.6289063,164.2426758 208.1132813,163.2890625 C212.5664063,162.2351074 216.2739258,160.5439453 219.234375,158.2148438 C219.1018066,157.949707 218.9458008,157.6765137 218.765625,157.3945313 C216.328125,159.1296387 213.2856445,160.5791016 209.6367188,161.7421875 C209.324707,161.0551758 208.949707,160.3051758 208.5117188,159.4921875 C212.465332,158.6572266 215.5898438,157.5512695 217.8867188,156.1757813 C217.7072754,155.9575195 217.5161133,155.7312012 217.3125,155.4960938 C215.3283691,156.4658203 212.6762695,157.3447266 209.3554688,158.1328125 C209.0273438,157.4458008 208.6289063,156.6958008 208.1601563,155.8828125 C211.293457,155.3679199 213.6723633,154.7270508 215.296875,153.9609375 L209.8945313,153.9609375 L209.8945313,149.6835938 C209.4257813,149.2390137 208.8479004,148.7270508 208.1601563,148.1484375 C211.1293945,146.5554199 213.4101563,144.7822266 215.0039063,142.828125 Z M213.5273438,147.9609375 L220.6054688,147.9609375 L222.3164063,146.484375 L215.3671875,146.484375 C214.7893066,147.0007324 214.1762695,147.4929199 213.5273438,147.9609375 Z M227.0742188,151.7109375 L227.0742188,150.2109375 L221.9296875,150.2109375 C221.7583008,150.7741699 221.5898438,151.2744141 221.4257813,151.7109375 Z M212.8710938,151.7109375 L217.9101563,151.7109375 C218.1445313,151.2897949 218.34375,150.7895508 218.5078125,150.2109375 L212.8710938,150.2109375 Z M227.2265625,153.9609375 L219.8203125,153.9609375 C219.7346191,154.0319824 219.6445313,154.1022949 219.5507813,154.171875 C220.4575195,154.9694824 221.203125,155.8212891 221.7890625,156.7265625 C223.5161133,155.9692383 225.328125,155.0478516 227.2265625,153.9609375 Z M219.9375,160.2070313 C218.7421875,161.277832 217.3439941,162.2504883 215.7421875,163.125 C216.84375,163.2033691 217.6721191,163.2421875 218.2265625,163.2421875 C219.46875,163.2421875 220.0898438,162.6335449 220.0898438,161.4140625 C220.0898438,161.0632324 220.0393066,160.6611328 219.9375,160.2070313 Z M254.8125153,143.6953125 L254.8125153,149.3203125 L237.7265778,149.3203125 L237.7265778,154.0546875 C237.7265778,159.6101074 236.7971344,163.6640625 234.9375153,166.21875 C234.1567535,165.1252441 233.4536285,164.1958008 232.8281403,163.4296875 C233.4375153,162.2739258 233.8872223,161.0419922 234.1757965,159.7331543 C234.4651031,158.4250488 234.6174469,156.5478516 234.6328278,154.1015625 L234.6328278,143.6953125 Z M251.7890778,147.1171875 L251.7890778,146.1328125 L237.7265778,146.1328125 L237.7265778,147.1171875 Z M251.0390778,160.640625 C251.1643219,161.1723633 251.383316,162.1801758 251.6953278,163.6640625 L249.7500153,164.015625 C249.7192535,163.828125 249.6840973,163.6369629 249.6445465,163.4414063 L241.8984528,164.25 L241.5468903,161.9296875 L245.2500153,161.7773438 L245.2500153,160.3828125 L240.9843903,160.3828125 L240.9843903,166.0546875 L238.1484528,166.0546875 L238.1484528,158.3203125 L245.2500153,158.3203125 L245.2500153,157.5 L239.1093903,157.5 L239.1093903,152.9296875 L245.2500153,152.9296875 L245.2500153,151.9921875 L238.8047028,152.0859375 L238.2422028,150.1640625 C244.3828278,150.1962891 249.6797028,150.1025391 254.1328278,149.8828125 L254.6953278,151.7578125 C253.0781403,151.8288574 250.8750153,151.8911133 248.0859528,151.9453125 L248.0859528,152.9296875 L254.2031403,152.9296875 L254.2031403,157.5 L248.0859528,157.5 L248.0859528,158.3203125 L255.2343903,158.3203125 L255.2343903,163.21875 C255.2343903,164.1174316 255.0644684,164.7971191 254.7246246,165.2578125 C254.3847809,165.7192383 253.9218903,165.9631348 253.3359528,165.9902344 C252.7500153,166.0180664 251.5473785,166.03125 249.7265778,166.03125 C249.5705719,165.328125 249.4065094,164.7114258 249.2343903,164.1796875 C250.0627594,164.2111816 250.8047028,164.2265625 251.4609528,164.2265625 C252.086441,164.2265625 252.3984528,163.8676758 252.3984528,163.1484375 L252.3984528,160.3828125 L248.0859528,160.3828125 L248.0859528,161.6367188 L249.3281403,161.5546875 L249.2343903,160.9453125 Z M251.4140778,154.7109375 L248.0859528,154.7109375 L248.0859528,155.7421875 L251.4140778,155.7421875 Z M241.9218903,155.7421875 L245.2500153,155.7421875 L245.2500153,154.7109375 L241.9218903,154.7109375 Z M265.6289063,162.0234375 L272.0976563,162.0234375 L272.0976563,157.6640625 L266.8007813,157.6640625 L266.8007813,154.6171875 L272.0976563,154.6171875 L272.0976563,150.4453125 L269.2382813,150.4453125 C268.8947754,151.8676758 268.5197754,153.1567383 268.1132813,154.3125 C267.1757813,153.7661133 266.2543945,153.2504883 265.3476563,152.765625 C266.3166504,150.2666016 267.0197754,147.4379883 267.4570313,144.28125 L270.3398438,144.4921875 C270.1918945,145.5087891 270.0351563,146.4770508 269.8710938,147.3984375 L272.0976563,147.3984375 L272.0976563,142.8984375 L275.2851563,142.8984375 L275.2851563,147.3984375 L280.1601563,147.3984375 L280.1601563,150.4453125 L275.2851563,150.4453125 L275.2851563,154.6171875 L280.0664063,154.6171875 L280.0664063,157.6640625 L275.2851563,157.6640625 L275.2851563,162.0234375 L280.8632813,162.0234375 L280.8632813,165.0703125 L265.6289063,165.0703125 Z M263.8945313,142.8984375 L263.8945313,146.1210938 C264.7382813,146.4733887 265.621582,146.8754883 266.5429688,147.328125 L265.3476563,149.8828125 L263.8945313,148.9101563 L263.8945313,165.984375 L260.7539063,165.984375 L260.7539063,142.8984375 Z M258.1992188,147.4453125 L260.1914063,147.6796875 C259.9885254,150.2585449 259.762207,152.5869141 259.5117188,154.6640625 C258.8400879,154.3989258 258.1992188,154.2275391 257.5898438,154.1484375 C257.887207,151.7270508 258.0900879,149.4931641 258.1992188,147.4453125 Z M288.046875,162.8203125 L289.78125,162.8203125 L289.78125,148.8515625 L295.2421875,148.8515625 L295.2421875,147.46875 L289.21875,147.46875 L289.21875,144.84375 L295.2421875,144.84375 L295.2421875,143.0859375 L298.3359375,143.0859375 L298.3359375,144.84375 L305.0625,144.84375 L305.0625,147.46875 L298.3359375,147.46875 L298.3359375,148.8515625 L303.984375,148.8515625 L303.984375,162.8203125 L305.625,162.8203125 L305.625,165.4453125 L288.046875,165.4453125 Z M286.125,142.78125 L289.21875,143.6015625 C288.6254883,145.4772949 287.9611816,147.3054199 287.2265625,149.0859375 L287.2265625,166.03125 L284.25,166.03125 L284.25,155.25 C283.828125,156.0161133 283.3908691,156.7661133 282.9375,157.5 C282.75,156.2666016 282.4921875,154.8054199 282.1640625,153.1171875 C283.6801758,150.0864258 285,146.6411133 286.125,142.78125 Z M292.734375,155.8828125 L301.03125,155.8828125 L301.03125,154.6640625 L292.734375,154.6640625 Z M292.734375,159.3515625 L301.03125,159.3515625 L301.03125,158.1328125 L292.734375,158.1328125 Z M301.03125,151.1953125 L292.734375,151.1953125 L292.734375,152.4140625 L301.03125,152.4140625 Z M292.734375,162.8203125 L301.03125,162.8203125 L301.03125,161.6015625 L292.734375,161.6015625 Z" style="fill:rgb(76,76,76);stroke:none" clip-path="url(#clip7)" />
<clipPath id="clip8"><path d="M337,14 L438,14 L438,58 L337,58 L337,14 Z" /></clipPath>
<path d="M344,16 C341.2385864,16 339,18.2385712 339,21 L339,50 C339,52.7614288 341.2385864,55 344,55 L430,55 C432.7614136,55 435,52.7614288 435,50 L435,21 C435,18.2385712 432.7614136,16 430,16 Z" style="fill:rgb(255,255,255);stroke:none" clip-path="url(#clip8)" />
<clipPath id="clip9"><path d="M337,14 L438,14 L438,58 L337,58 L337,14 Z" /></clipPath>
<path d="M344,16 C341.2385864,16 339,18.2385712 339,21 L339,50 C339,52.7614288 341.2385864,55 344,55 L430,55 C432.7614136,55 435,52.7614288 435,50 L435,21 C435,18.2385712 432.7614136,16 430,16 Z" style="fill:none;stroke:rgb(128,128,128)" clip-path="url(#clip9)" />
<clipPath id="clip10"><path d="M350,22 L425,22 L425,50 L350,50 L350,22 Z" /></clipPath>
<path d="M354.954834,36.8051758 L366.5095215,36.8051758 L366.5095215,44.1430664 L365.2478027,44.1430664 L365.2478027,43.3793945 L356.2165527,43.3793945 L356.2165527,44.1430664 L354.954834,44.1430664 Z M352.6306152,34.3149414 L358.2253418,34.3149414 L358.2253418,30.8950195 L353.1618652,30.8950195 L353.1618652,29.7661133 L357.7189941,29.7661133 C357.3926697,29.3183899 357.0134277,28.8535461 356.5817871,28.371582 L357.5446777,27.6743164 C358.0541382,28.1951904 358.5298767,28.7264404 358.9724121,29.2680664 L358.2751465,29.7661133 L362.5168457,29.7661133 C362.9484863,29.1414795 363.3884277,28.4551086 363.8366699,27.7075195 L365.048584,28.371582 C364.6833496,28.8810425 364.3404236,29.3458862 364.0192871,29.7661133 L368.3024902,29.7661133 L368.3024902,30.8950195 L363.2390137,30.8950195 L363.2390137,34.3149414 L368.8337402,34.3149414 L368.8337402,35.4438477 L352.6306152,35.4438477 Z M356.2165527,42.2504883 L365.2478027,42.2504883 L365.2478027,40.6401367 L356.2165527,40.6401367 Z M365.2478027,37.934082 L356.2165527,37.934082 L356.2165527,39.5444336 L365.2478027,39.5444336 Z M359.4372559,34.3149414 L362.0270996,34.3149414 L362.0270996,30.8950195 L359.4372559,30.8950195 Z M364.2185059,33.2856445 C364.8161621,32.6776123 365.4029236,31.9855347 365.9782715,31.2104492 L367.0407715,31.9741211 C366.4213257,32.7160034 365.7904663,33.413269 365.1481934,34.065918 Z M354.3239746,32.0571289 L355.220459,31.2436523 C355.9291382,31.9191284 356.5599976,32.5556946 357.1130371,33.152832 L356.1501465,34.0161133 C355.6520996,33.4298706 355.0435486,32.7772217 354.3239746,32.0571289 Z M376.6281738,41.5532227 L375.4494629,41.5532227 L375.4494629,32.206543 L379.4504395,32.206543 C378.6203613,31.7811279 377.7627869,31.3546753 376.8771973,30.9282227 L377.5578613,30.1313477 C378.4268494,30.5526123 379.2429199,30.9536438 380.0065918,31.3349609 L382.9699707,29.7827148 L375.1838379,29.7827148 L375.1838379,28.7202148 L385.161377,28.7202148 L385.161377,29.8325195 L381.1520996,31.9160156 C381.3461304,32.0161438 381.5339355,32.1131592 381.7165527,32.206543 L385.2775879,32.206543 L385.2775879,39.7104492 C385.2775879,40.9726868 384.6965332,41.6035461 383.5344238,41.6030273 C382.9590759,41.6035461 382.3339233,41.5869446 381.6584473,41.5532227 C381.6034546,41.1329956 381.5204468,40.7070618 381.4094238,40.2749023 C382.1066895,40.3527222 382.7043457,40.3916321 383.2023926,40.3911133 C383.8000488,40.3916321 384.098877,40.1036987 384.098877,39.527832 L384.098877,38.7143555 L380.9279785,38.7143555 L380.9279785,41.3041992 L379.7492676,41.3041992 L379.7492676,38.7143555 L376.6281738,38.7143555 Z M376.810791,42.4663086 L380.9445801,42.5327148 L386.4729004,42.3999023 C386.3515015,42.7651367 386.1963806,43.2024841 386.0080566,43.7114258 L380.5129395,43.7446289 L376.5617676,43.6450195 C374.680603,43.62323 373.3633728,42.975769 372.6105957,41.7026367 C372.1571655,42.1233826 371.493103,42.8647461 370.6184082,43.9272461 L369.9377441,42.5493164 C370.9172363,41.6035461 371.6259155,40.9254761 372.0627441,40.515625 L372.0627441,34.9291992 L370.0871582,34.9291992 L370.0871582,33.7006836 L373.3410645,33.7006836 L373.3410645,40.7978516 C374.0217285,41.8997803 375.1786499,42.4554138 376.810791,42.4663086 Z M372.0129395,28.1225586 C372.5773926,28.8094482 373.352478,29.8553467 374.3371582,31.2602539 L373.1584473,32.090332 C372.2619629,30.6854248 371.5263062,29.6006165 370.9504395,28.8364258 Z M384.098877,33.269043 L380.9279785,33.269043 L380.9279785,34.9291992 L384.098877,34.9291992 Z M380.9279785,37.6518555 L384.098877,37.6518555 L384.098877,35.9916992 L380.9279785,35.9916992 Z M376.6281738,34.9291992 L379.7492676,34.9291992 L379.7492676,33.269043 L376.6281738,33.269043 Z M376.6281738,37.6518555 L379.7492676,37.6518555 L379.7492676,35.9916992 L376.6281738,35.9916992 Z M404.0788574,42.8979492 C403.8578491,43.1526794 403.564209,43.5900269 403.1989746,44.2094727 C399.6021423,43.512207 397.1176147,41.9739685 395.744873,39.5942383 C394.7601929,42.0403748 392.2808533,43.6175232 388.307373,44.3256836 C388.1081543,43.9495544 387.8705444,43.5402222 387.5935059,43.097168 C391.3345642,42.5882263 393.6478882,41.2772217 394.532959,39.1625977 L387.9753418,39.1625977 L387.9753418,38.0004883 L394.8815918,38.0004883 C394.9703064,37.6357727 395.0424194,37.1984253 395.0974121,36.6889648 L396.4255371,36.6889648 C396.3482361,37.1875305 396.2709351,37.6248779 396.1931152,38.0004883 L403.5144043,38.0004883 L403.5144043,39.1625977 L396.8571777,39.1625977 C398.3295288,41.2990112 400.7367554,42.5441284 404.0788574,42.8979492 Z M388.1081543,32.0073242 L395.1472168,32.0073242 L395.1472168,27.8569336 L396.4089355,27.8569336 L396.4089355,32.0073242 L403.3815918,32.0073242 L403.3815918,33.1196289 L396.4089355,33.1196289 L396.4089355,34.0991211 L396.8737793,33.4682617 C399.8843689,34.6417847 402.1919861,35.5828857 403.7966309,36.2905273 L403.2155762,37.3696289 C401.3453064,36.4072571 399.0765991,35.4111633 396.4089355,34.3813477 L396.4089355,36.1079102 L395.1472168,36.1079102 L395.1472168,33.3354492 C393.1773376,35.195343 390.9418335,36.523468 388.4401855,37.3198242 C388.2077637,36.977417 387.9369507,36.6121826 387.626709,36.2241211 C390.1501465,35.5164795 392.2699585,34.4814758 393.9851074,33.1196289 L388.1081543,33.1196289 Z M401.9870605,29.2348633 C401.3012085,29.81073 400.2770996,30.602417 398.9157715,31.6088867 L398.0524902,30.7290039 C398.9380798,30.0986633 399.9341736,29.3017883 401.0407715,28.3383789 Z M389.635498,29.2182617 L390.4489746,28.3383789 C391.6333923,29.1798706 392.6071777,29.9383545 393.3708496,30.612793 L392.4743652,31.5922852 C391.7885132,30.9064331 390.8422241,30.1152649 389.635498,29.2182617 Z M405.1496582,32.6381836 L407.6730957,32.6381836 C407.6845093,32.4005737 407.6896973,31.476593 407.6896973,29.8657227 L405.8469238,29.8657227 L405.8469238,28.7700195 L414.5129395,28.7700195 L414.5129395,29.8657227 L412.7033691,29.8657227 L412.7033691,32.6381836 L415.060791,32.6381836 L415.060791,33.7338867 L412.7033691,33.7338867 L412.7033691,37.3032227 L411.4914551,37.3032227 L411.4914551,33.7338867 L408.8103027,33.7338867 C408.6723022,35.3281555 407.883728,36.7060852 406.4445801,37.8676758 C406.1571655,37.5470581 405.8526306,37.2264404 405.5314941,36.9047852 C406.8046265,35.920105 407.4878845,34.8633118 407.5817871,33.7338867 L405.1496582,33.7338867 Z M405.1164551,42.2172852 L412.5539551,42.2172852 L412.5539551,39.9760742 L406.6271973,39.9760742 L406.6271973,38.8305664 L412.5539551,38.8305664 L412.5539551,37.5356445 L413.848877,37.5356445 L413.848877,38.8305664 L419.9250488,38.8305664 L419.9250488,39.9760742 L413.848877,39.9760742 L413.848877,42.2172852 L421.3693848,42.2172852 L421.3693848,43.362793 L405.1164551,43.362793 Z M420.3068848,28.105957 L420.3068848,35.7426758 C420.3068848,36.9161987 419.7258301,37.513855 418.5637207,37.5356445 C417.8996582,37.5584717 417.1307983,37.5584717 416.2561035,37.5356445 C416.2120056,37.1154175 416.1455994,36.6785889 416.0568848,36.2241211 C416.9865723,36.2801514 417.6838379,36.3076477 418.1486816,36.3071289 C418.779541,36.3076477 419.0949707,35.9590149 419.0949707,35.2612305 L419.0949707,28.105957 Z M408.8850098,32.6381836 L411.4914551,32.6381836 L411.4914551,29.8657227 L408.9016113,29.8657227 C408.9016113,31.2052612 408.8964233,32.1297607 408.8850098,32.6381836 Z M415.7414551,29.0356445 L416.9367676,29.0356445 L416.9367676,34.7797852 L415.7414551,34.7797852 Z" style="fill:rgb(48,48,48);stroke:none" clip-path="url(#clip10)" />
<clipPath id="clip11"><path d="M390,86 L456,86 L456,130 L390,130 L390,86 Z" /></clipPath>
<path d="M397,88 C394.2385864,88 392,90.2385712 392,93 L392,122 C392,124.7614288 394.2385864,127 397,127 L448,127 C450.7614136,127 453,124.7614288 453,122 L453,93 C453,90.2385712 450.7614136,88 448,88 Z" style="fill:rgb(255,255,255);stroke:none" clip-path="url(#clip11)" />
<clipPath id="clip12"><path d="M390,86 L456,86 L456,130 L390,130 L390,86 Z" /></clipPath>
<path d="M397,88 C394.2385864,88 392,90.2385712 392,93 L392,122 C392,124.7614288 394.2385864,127 397,127 L448,127 C450.7614136,127 453,124.7614288 453,122 L453,93 C453,90.2385712 450.7614136,88 448,88 Z" style="fill:none;stroke:rgb(128,128,128)" clip-path="url(#clip12)" />
<clipPath id="clip13"><path d="M403,94 L443,94 L443,122 L403,122 L403,94 Z" /></clipPath>
<path d="M419.0842285,115.9770508 L419.0842285,115.1801758 L405.9025879,115.1801758 L405.9025879,103.9243164 L407.2307129,103.9243164 L407.2307129,113.9516602 L419.0842285,113.9516602 L419.0842285,103.9243164 L420.4123535,103.9243164 L420.4123535,115.9770508 Z M412.8088379,103.8413086 L416.7434082,101.7495117 L407.3469238,101.7495117 L407.3469238,100.5375977 L418.7189941,100.5375977 L418.7189941,101.9155273 L414.0705566,104.4887695 L414.0705566,111.0297852 C414.0705566,112.4139404 413.3898926,113.1054993 412.0285645,113.1049805 C411.4755249,113.1054993 410.7834473,113.0946045 409.9533691,113.0717773 C409.920166,112.696167 409.8537598,112.2479248 409.7541504,111.7270508 C410.4628296,111.8162842 411.1320801,111.8603821 411.7629395,111.8598633 C412.4602051,111.8603821 412.8088379,111.5283508 412.8088379,110.8637695 Z M411.779541,107.5102539 L412.4602051,108.5561523 C411.098877,109.3312378 409.649353,110.1836243 408.1105957,111.112793 L407.3635254,109.9672852 C408.7362671,109.3037415 410.2080994,108.4845581 411.779541,107.5102539 Z M414.3195801,108.5063477 L415.1164551,107.543457 C416.3449707,108.3076477 417.618103,109.1486206 418.9348145,110.0668945 L418.0383301,111.1791992 C416.821228,110.2277222 415.5812988,109.3369446 414.3195801,108.5063477 Z M407.8947754,104.5551758 L408.708252,103.6586914 C409.8153687,104.4228821 410.8830566,105.2088623 411.9123535,106.0161133 L411.0158691,107.0454102 C409.9424744,106.1271362 408.9022827,105.2970581 407.8947754,104.5551758 Z M417.6564941,103.8413086 L418.6193848,104.737793 C417.7452087,105.4796753 416.7657166,106.2713623 415.6809082,107.1118164 L414.817627,106.1655273 C415.7919312,105.4464722 416.7382202,104.6719055 417.6564941,103.8413086 Z M433.2536621,99.7241211 L434.5817871,99.9233398 C434.3493652,100.9972534 434.0785522,101.999054 433.7683105,102.9282227 L438.8483887,102.9282227 L438.8483887,104.0571289 L437.8024902,104.0571289 C437.5259705,107.311554 436.8178101,109.8956909 435.6774902,111.8100586 C436.5739746,113.0281982 437.7142944,114.0237732 439.0974121,114.7983398 C438.7435913,115.2854919 438.4447632,115.7228394 438.2009277,116.1098633 C436.8510132,115.2356873 435.7272949,114.1954956 434.8308105,112.9887695 C433.8129272,114.2504883 432.6010132,115.3461914 431.1950684,116.2758789 C430.9517517,115.9552612 430.636322,115.6066284 430.2487793,115.2299805 C431.7984314,114.2120972 433.0544434,113.0556946 434.017334,111.7602539 C433.1208496,110.2111206 432.5289001,108.4238586 432.2409668,106.3979492 C432.0085449,106.8078003 431.7652283,107.1896362 431.510498,107.543457 C431.2894897,107.2228394 431.0124512,106.8690186 430.6804199,106.480957 C431.964447,104.6329956 432.8220215,102.3808899 433.2536621,99.7241211 Z M422.5622559,109.3032227 L425.0856934,109.3032227 C425.3295288,108.8829956 425.5671387,108.451355 425.7995605,108.0083008 L426.994873,108.3901367 C426.8179626,108.7003784 426.6410522,109.0049133 426.463623,109.3032227 L430.5310059,109.3032227 L430.5310059,110.3823242 C430.1107788,111.4676514 429.4742126,112.4191284 428.6218262,113.237793 C429.230896,113.5262451 429.8503418,113.8136597 430.4812012,114.1010742 L429.7507324,115.246582 C429.0648804,114.8595581 428.3510132,114.4720154 427.6091309,114.0844727 C426.3588257,114.980957 424.7816772,115.6896362 422.8776855,116.2094727 C422.7007751,115.8556519 422.5124512,115.4681091 422.3132324,115.0473633 C423.9292908,114.6821289 425.2963257,114.1565857 426.4138184,113.4702148 C425.4623413,112.9835815 424.4662476,112.4855347 423.4255371,111.9760742 C423.7798767,111.4676514 424.1228027,110.9415894 424.454834,110.3989258 L422.5622559,110.3989258 Z M422.744873,103.5922852 L426.5632324,103.5922852 L426.5632324,99.8735352 L427.791748,99.8735352 L427.791748,103.5922852 L430.979248,103.5922852 L430.979248,104.6879883 L427.791748,104.6879883 L427.791748,105.7006836 L428.2897949,105.1362305 C429.3190918,105.8895264 430.182373,106.5535889 430.8796387,107.128418 L430.0827637,108.0581055 C429.4742126,107.4832764 428.7105408,106.8358154 427.791748,106.1157227 L427.791748,108.0083008 L426.5632324,108.0083008 L426.5632324,105.684082 C425.5562439,106.7362061 424.3832397,107.6601868 423.0437012,108.456543 C422.8335876,108.1359253 422.595459,107.7987061 422.329834,107.4438477 C423.7243652,106.6915894 425.0026855,105.7733154 426.1647949,104.6879883 L422.744873,104.6879883 Z M436.4743652,104.0571289 L433.369873,104.0571289 C433.3148804,104.201355 433.2536621,104.3398743 433.1872559,104.472168 C433.3864746,106.8192139 433.940033,108.8280029 434.8474121,110.4985352 C435.7330017,108.8829956 436.2751465,106.7362061 436.4743652,104.0571289 Z M425.0524902,111.5942383 C425.8384705,111.9490967 426.6462402,112.319519 427.4763184,112.706543 C428.2399902,112.053894 428.8376465,111.2850342 429.2692871,110.3989258 L425.8161621,110.3989258 C425.5619507,110.8087769 425.3072205,111.2072144 425.0524902,111.5942383 Z M430.2321777,100.2885742 L431.2614746,100.9692383 C430.6529236,101.7666321 430.0443726,102.5028076 429.4353027,103.1772461 C429.1810913,102.9562378 428.8822632,102.7238159 428.5388184,102.4799805 C429.1146851,101.805542 429.6791382,101.0750732 430.2321777,100.2885742 Z M423.1765137,101.019043 L424.1228027,100.371582 C424.6208496,100.9806519 425.135498,101.6338196 425.666748,102.3305664 L424.6374512,103.0610352 C424.1508179,102.34198 423.6636658,101.6613159 423.1765137,101.019043 Z" style="fill:rgb(48,48,48);stroke:none" clip-path="url(#clip13)" />
<clipPath id="clip14"><path d="M394,159 L639,159 L639,220 L394,220 Z M400,179 C397.2385864,179 395,181.2385712 395,184 L395,213 C395,215.7614288 397.2385864,218 400,218 L452,218 C454.7614136,218 457,215.7614288 457,213 L457,184 C457,181.2385712 454.7614136,179 452,179 Z" /></clipPath>
<path d="M469.9998169,198.7200012 L469.9998169,189 C469.9998169,186.7919922 471.7918396,185 473.9998169,185 L479,185" style="fill:none;stroke:rgb(128,128,128)" clip-path="url(#clip14)" />
<clipPath id="clip15"><path d="M394,159 L639,159 L639,220 L394,220 Z M400,179 C397.2385864,179 395,181.2385712 395,184 L395,213 C395,215.7614288 397.2385864,218 400,218 L452,218 C454.7614136,218 457,215.7614288 457,213 L457,184 C457,181.2385712 454.7614136,179 452,179 Z" /></clipPath>
<path d="M469.9998169,198.7200012 L469.9998169,209 C469.9998169,211.2080078 471.7918396,213 473.9998169,213 L479,213" style="fill:none;stroke:rgb(128,128,128)" clip-path="url(#clip15)" />
<clipPath id="clip16"><path d="M393,158 L640,158 L640,221 L393,221 L393,158 Z" /></clipPath>
<path d="M457,198.6549988 L469.9998169,198.7200012" style="fill:none;stroke:rgb(128,128,128)" clip-path="url(#clip16)" />
<clipPath id="clip17"><path d="M393,177 L460,177 L460,221 L393,221 L393,177 Z" /></clipPath>
<path d="M400,179 C397.2385864,179 395,181.2385712 395,184 L395,213 C395,215.7614288 397.2385864,218 400,218 L452,218 C454.7614136,218 457,215.7614288 457,213 L457,184 C457,181.2385712 454.7614136,179 452,179 Z" style="fill:rgb(255,255,255);stroke:none" clip-path="url(#clip17)" />
<clipPath id="clip18"><path d="M393,177 L460,177 L460,221 L393,221 L393,177 Z" /></clipPath>
<path d="M400,179 C397.2385864,179 395,181.2385712 395,184 L395,213 C395,215.7614288 397.2385864,218 400,218 L452,218 C454.7614136,218 457,215.7614288 457,213 L457,184 C457,181.2385712 454.7614136,179 452,179 Z" style="fill:none;stroke:rgb(128,128,128)" clip-path="url(#clip18)" />
<clipPath id="clip19"><path d="M406,185 L447,185 L447,213 L406,213 L406,185 Z" /></clipPath>
<path d="M419.8781738,190.7241211 L421.2062988,190.9233398 C420.973877,191.9972534 420.703064,192.999054 420.3928223,193.9282227 L425.4729004,193.9282227 L425.4729004,195.0571289 L424.427002,195.0571289 C424.1504822,198.311554 423.4423218,200.8956909 422.302002,202.8100586 C423.1984863,204.0281982 424.3388062,205.0237732 425.7219238,205.7983398 C425.368103,206.2854919 425.0692749,206.7228394 424.8254395,207.1098633 C423.4755249,206.2356873 422.3518066,205.1954956 421.4553223,203.9887695 C420.437439,205.2504883 419.2255249,206.3461914 417.8195801,207.2758789 C417.5762634,206.9552612 417.2608337,206.6066284 416.873291,206.2299805 C418.4229431,205.2120972 419.6789551,204.0556946 420.6418457,202.7602539 C419.7453613,201.2111206 419.1534119,199.4238586 418.8654785,197.3979492 C418.6330566,197.8078003 418.38974,198.1896362 418.1350098,198.543457 C417.9140015,198.2228394 417.6369629,197.8690186 417.3049316,197.480957 C418.5889587,195.6329956 419.4465332,193.3808899 419.8781738,190.7241211 Z M409.1867676,200.3032227 L411.7102051,200.3032227 C411.9540405,199.8829956 412.1916504,199.451355 412.4240723,199.0083008 L413.6193848,199.3901367 C413.4424744,199.7003784 413.265564,200.0049133 413.0881348,200.3032227 L417.1555176,200.3032227 L417.1555176,201.3823242 C416.7352905,202.4676514 416.0987244,203.4191284 415.2463379,204.237793 C415.8554077,204.5262451 416.4748535,204.8136597 417.1057129,205.1010742 L416.3752441,206.246582 C415.6893921,205.8595581 414.9755249,205.4720154 414.2336426,205.0844727 C412.9833374,205.980957 411.406189,206.6896362 409.5021973,207.2094727 C409.3252869,206.8556519 409.1369629,206.4681091 408.9377441,206.0473633 C410.5538025,205.6821289 411.9208374,205.1565857 413.0383301,204.4702148 C412.086853,203.9835815 411.0907593,203.4855347 410.0500488,202.9760742 C410.4043884,202.4676514 410.7473145,201.9415894 411.0793457,201.3989258 L409.1867676,201.3989258 Z M409.3693848,194.5922852 L413.1877441,194.5922852 L413.1877441,190.8735352 L414.4162598,190.8735352 L414.4162598,194.5922852 L417.6037598,194.5922852 L417.6037598,195.6879883 L414.4162598,195.6879883 L414.4162598,196.7006836 L414.9143066,196.1362305 C415.9436035,196.8895264 416.8068848,197.5535889 417.5041504,198.128418 L416.7072754,199.0581055 C416.0987244,198.4832764 415.3350525,197.8358154 414.4162598,197.1157227 L414.4162598,199.0083008 L413.1877441,199.0083008 L413.1877441,196.684082 C412.1807556,197.7362061 411.0077515,198.6601868 409.6682129,199.456543 C409.4580994,199.1359253 409.2199707,198.7987061 408.9543457,198.4438477 C410.348877,197.6915894 411.6271973,196.7733154 412.7893066,195.6879883 L409.3693848,195.6879883 Z M423.098877,195.0571289 L419.9943848,195.0571289 C419.9393921,195.201355 419.8781738,195.3398743 419.8117676,195.472168 C420.0109863,197.8192139 420.5645447,199.8280029 421.4719238,201.4985352 C422.3575134,199.8829956 422.8996582,197.7362061 423.098877,195.0571289 Z M411.677002,202.5942383 C412.4629822,202.9490967 413.270752,203.319519 414.1008301,203.706543 C414.864502,203.053894 415.4621582,202.2850342 415.8937988,201.3989258 L412.4406738,201.3989258 C412.1864624,201.8087769 411.9317322,202.2072144 411.677002,202.5942383 Z M416.8566895,191.2885742 L417.8859863,191.9692383 C417.2774353,192.7666321 416.6688843,193.5028076 416.0598145,194.1772461 C415.805603,193.9562378 415.5067749,193.7238159 415.1633301,193.4799805 C415.7391968,192.805542 416.3036499,192.0750732 416.8566895,191.2885742 Z M409.8010254,192.019043 L410.7473145,191.371582 C411.2453613,191.9806519 411.7600098,192.6338196 412.2912598,193.3305664 L411.2619629,194.0610352 C410.7753296,193.34198 410.2881775,192.6613159 409.8010254,192.019043 Z M431.5905762,206.1801758 L431.5905762,204.9848633 L433.5661621,204.9848633 L433.5661621,191.6870117 L441.6013184,191.6870117 L441.6013184,204.9848633 L443.0622559,204.9848633 L443.0622559,206.1801758 Z M428.8679199,200.2866211 C429.9968262,200.1434326 431.1755371,199.9940186 432.4040527,199.8383789 C432.3599548,200.3146362 432.3210449,200.6912842 432.2878418,200.9672852 C430.6499939,201.1779175 429.0064392,201.4051514 427.3571777,201.6479492 L427.0915527,200.4360352 C427.7945251,199.8887024 428.6661072,198.7431946 429.7062988,196.9995117 C428.4891968,197.0773315 427.5787048,197.1437378 426.9753418,197.1987305 L426.6433105,196.1030273 C427.5065918,195.0633545 428.4528809,193.2812805 429.4821777,190.7573242 L430.8269043,191.222168 C429.8640137,193.0379639 428.9566345,194.6317139 428.104248,196.003418 C429.017334,195.99823 429.7478027,195.9873352 430.2956543,195.9702148 C430.7387085,195.1795654 431.2087402,194.288269 431.7067871,193.2973633 L432.9851074,193.8618164 C431.7233887,196.0978394 430.3511658,198.2394409 428.8679199,200.2866211 Z M440.3395996,192.8823242 L434.8278809,192.8823242 L434.8278809,196.152832 L440.3395996,196.152832 Z M434.8278809,204.9848633 L440.3395996,204.9848633 L440.3395996,201.7143555 L434.8278809,201.7143555 Z M434.8278809,200.5688477 L440.3395996,200.5688477 L440.3395996,197.2983398 L434.8278809,197.2983398 Z M426.776123,204.0385742 C428.3812866,203.7402649 430.3070679,203.3418274 432.5534668,202.8432617 C432.5093689,203.3527222 432.4870605,203.773468 432.4870605,204.1049805 C430.1851501,204.5812378 428.4030762,204.9796753 427.1413574,205.300293 Z" style="fill:rgb(48,48,48);stroke:none" clip-path="url(#clip19)" />
<clipPath id="clip20"><path d="M458,193 L471,193 L471,206 L458,206 L458,193 Z" /></clipPath>
<path d="M468.5,199 C468.5,196.5147095 466.4852905,194.5 464,194.5 C461.5147095,194.5 459.5,196.5147095 459.5,199 C459.5,201.4852905 461.5147095,203.5 464,203.5 C466.4852905,203.5 468.5,201.4852753 468.5,199 Z" style="fill:rgb(250,250,250);stroke:none" clip-path="url(#clip20)" />
<clipPath id="clip21"><path d="M458,193 L471,193 L471,206 L458,206 L458,193 Z" /></clipPath>
<path d="M468.5,199 C468.5,196.5147095 466.4852905,194.5 464,194.5 C461.5147095,194.5 459.5,196.5147095 459.5,199 C459.5,201.4852905 461.5147095,203.5 464,203.5 C466.4852905,203.5 468.5,201.4852753 468.5,199 Z" style="fill:none;stroke:rgb(128,128,128)" clip-path="url(#clip21)" />
<clipPath id="clip22"><path d="M458,193 L471,193 L471,206 L458,206 L458,193 Z" /></clipPath>
<path d="M462,199 L466,199" style="fill:none;stroke:rgb(150,160,200)" clip-path="url(#clip22)" />
<clipPath id="clip23"><path d="M477,158 L543,158 L543,187 L477,187 L477,158 Z" /></clipPath>
<path d="M479,185 L540,185 Z" style="fill:none;stroke:rgb(128,128,128)" clip-path="url(#clip23)" />
<clipPath id="clip24"><path d="M487,161 L533,161 L533,184 L487,184 L487,161 Z" /></clipPath>
<path d="M491.6376953,173.1855469 L500.4736328,173.1855469 L500.4736328,178.796875 L499.5087891,178.796875 L499.5087891,178.2128906 L492.6025391,178.2128906 L492.6025391,178.796875 L491.6376953,178.796875 Z M489.8603516,171.28125 L494.1386719,171.28125 L494.1386719,168.6660156 L490.2666016,168.6660156 L490.2666016,167.8027344 L493.7514648,167.8027344 C493.5019226,167.4603577 493.2119141,167.1048889 492.8818359,166.7363281 L493.6181641,166.203125 C494.0077515,166.6014404 494.3715515,167.0076904 494.7099609,167.421875 L494.1767578,167.8027344 L497.4204102,167.8027344 C497.7504883,167.3250732 498.0869141,166.8002014 498.4296875,166.2285156 L499.3564453,166.7363281 C499.0771484,167.1259155 498.8149109,167.4813843 498.5693359,167.8027344 L501.8447266,167.8027344 L501.8447266,168.6660156 L497.9726563,168.6660156 L497.9726563,171.28125 L502.2509766,171.28125 L502.2509766,172.1445313 L489.8603516,172.1445313 Z M492.6025391,177.3496094 L499.5087891,177.3496094 L499.5087891,176.1181641 L492.6025391,176.1181641 Z M499.5087891,174.0488281 L492.6025391,174.0488281 L492.6025391,175.2802734 L499.5087891,175.2802734 Z M495.0654297,171.28125 L497.0458984,171.28125 L497.0458984,168.6660156 L495.0654297,168.6660156 Z M498.7216797,170.4941406 C499.1787109,170.0291748 499.6274109,169.499939 500.0673828,168.9072266 L500.8798828,169.4912109 C500.406189,170.0585327 499.9237671,170.5917358 499.4326172,171.0908203 Z M491.1552734,169.5546875 L491.8408203,168.9326172 C492.3827515,169.4491577 492.8651733,169.9359436 493.2880859,170.3925781 L492.5517578,171.0527344 C492.1708984,170.6044312 491.7055359,170.1053467 491.1552734,169.5546875 Z M508.2114258,176.8164063 L507.3100586,176.8164063 L507.3100586,169.6689453 L510.3696289,169.6689453 C509.7348633,169.3436279 509.079071,169.0175171 508.4018555,168.6914063 L508.9223633,168.0820313 C509.5868835,168.4041748 510.2109375,168.7108459 510.7949219,169.0024414 L513.0610352,167.8154297 L507.1069336,167.8154297 L507.1069336,167.0029297 L514.7368164,167.0029297 L514.7368164,167.8535156 L511.6708984,169.4467773 C511.8192749,169.5233459 511.9628906,169.5975342 512.1025391,169.6689453 L514.8256836,169.6689453 L514.8256836,175.4072266 C514.8256836,176.372467 514.3813477,176.8548889 513.4926758,176.8544922 C513.0527344,176.8548889 512.574646,176.8421936 512.0581055,176.8164063 C512.0160522,176.4950562 511.9525757,176.169342 511.8676758,175.8388672 C512.4008789,175.8983765 512.8579102,175.9281311 513.2387695,175.9277344 C513.6958008,175.9281311 513.9243164,175.7079468 513.9243164,175.2675781 L513.9243164,174.6455078 L511.4995117,174.6455078 L511.4995117,176.6259766 L510.5981445,176.6259766 L510.5981445,174.6455078 L508.2114258,174.6455078 Z M508.3510742,177.5146484 L511.512207,177.5654297 L515.7397461,177.4638672 C515.6469116,177.7431641 515.5283203,178.0776062 515.3842773,178.4667969 L511.1821289,178.4921875 L508.1606445,178.4160156 C506.7221069,178.399353 505.7148132,177.9042358 505.1391602,176.9306641 C504.7924194,177.2524109 504.2846069,177.8193359 503.6157227,178.6318359 L503.0952148,177.578125 C503.8442383,176.8548889 504.3861694,176.3363647 504.7202148,176.0229492 L504.7202148,171.7509766 L503.2094727,171.7509766 L503.2094727,170.8115234 L505.6977539,170.8115234 L505.6977539,176.2387695 C506.2182617,177.0814209 507.1029663,177.5063171 508.3510742,177.5146484 Z M504.6821289,166.5458984 C505.1137695,167.071167 505.7064819,167.8709717 506.4594727,168.9453125 L505.5581055,169.5800781 C504.8725586,168.5057373 504.3099976,167.676178 503.8696289,167.0917969 Z M513.9243164,170.4814453 L511.4995117,170.4814453 L511.4995117,171.7509766 L513.9243164,171.7509766 Z M511.4995117,173.8330078 L513.9243164,173.8330078 L513.9243164,172.5634766 L511.4995117,172.5634766 Z M508.2114258,171.7509766 L510.5981445,171.7509766 L510.5981445,170.4814453 L508.2114258,170.4814453 Z M508.2114258,173.8330078 L510.5981445,173.8330078 L510.5981445,172.5634766 L508.2114258,172.5634766 Z M519.6181641,177.5527344 L520.9003906,177.5527344 L520.9003906,169.6943359 L523.8964844,169.6943359 L523.8964844,168.5390625 L520.2148438,168.5390625 L520.2148438,167.6757813 L523.8964844,167.6757813 L523.8964844,166.3300781 L524.8613281,166.3300781 L524.8613281,167.6757813 L528.8603516,167.6757813 L528.8603516,168.5390625 L524.8613281,168.5390625 L524.8613281,169.6943359 L527.9335938,169.6943359 L527.9335938,177.5527344 L529.1396484,177.5527344 L529.1396484,178.4160156 L519.6181641,178.4160156 Z M516.4697266,172.5507813 C517.6040039,170.8583374 518.484314,168.8060608 519.1103516,166.3935547 L520.0498047,166.6728516 C519.7114258,167.7650452 519.3432617,168.7890015 518.9453125,169.7451172 L518.9453125,178.7714844 L518.0185547,178.7714844 L518.0185547,171.7001953 C517.6547852,172.3778076 517.2695313,173.0082092 516.8632813,173.5917969 C516.7450562,173.2367249 516.6137695,172.8895874 516.4697266,172.5507813 Z M521.8398438,177.5527344 L526.9941406,177.5527344 L526.9941406,176.3974609 L521.8398438,176.3974609 Z M526.9941406,170.5322266 L521.8398438,170.5322266 L521.8398438,171.6748047 L526.9941406,171.6748047 Z M521.8398438,173.6298828 L526.9941406,173.6298828 L526.9941406,172.4873047 L521.8398438,172.4873047 Z M521.8398438,175.5849609 L526.9941406,175.5849609 L526.9941406,174.4423828 L521.8398438,174.4423828 Z" style="fill:rgb(0,0,0);stroke:none" clip-path="url(#clip24)" />
<clipPath id="clip25"><path d="M478,187 L639,187 L639,214 L478,214 Z M479,188 L479,212 L527,212 L527,188 Z" /></clipPath>
<path d="M540,213 C540,213 541.7919922,213 544,213 L549,213" style="fill:none;stroke:rgb(128,128,128)" clip-path="url(#clip25)" />
<clipPath id="clip26"><path d="M477,186 L640,186 L640,215 L477,215 L477,186 Z" /></clipPath>
<path d="M527,213 L540,213" style="fill:none;stroke:rgb(128,128,128)" clip-path="url(#clip26)" />
<clipPath id="clip27"><path d="M477,186 L530,186 L530,215 L477,215 L477,186 Z" /></clipPath>
<path d="M479,213 L527,213 Z" style="fill:none;stroke:rgb(128,128,128)" clip-path="url(#clip27)" />
<clipPath id="clip28"><path d="M487,189 L520,189 L520,212 L487,212 L487,189 Z" /></clipPath>
<path d="M491.2155762,197.6245117 C491.947937,198.6829834 492.6564941,199.715271 493.342041,200.722168 C493.8458862,199.4827881 494.1652527,198.1410522 494.3005371,196.6977539 L490.314209,196.6977539 L490.314209,195.7329102 L495.3415527,195.7329102 L495.3415527,196.659668 C495.1090698,198.496521 494.6583862,200.1659546 493.989502,201.6679688 C494.6794128,202.6796265 495.3459167,203.6635132 495.9890137,204.6196289 L495.0749512,205.2290039 C494.5461121,204.395874 494.0109253,203.559967 493.4689941,202.7216797 C492.7160034,204.1015015 491.7575073,205.3222351 490.5935059,206.3842773 C490.4244995,206.1220398 490.2170105,205.8129883 489.9714355,205.4575195 C491.1818542,204.3704834 492.142334,203.1430054 492.8532715,201.7758789 C492.0661621,200.5702209 491.2663574,199.3598022 490.4538574,198.1450195 Z M495.8493652,197.1166992 L500.0769043,197.1166992 L500.0769043,194.3999023 L501.1052246,194.3999023 L501.1052246,197.1166992 L502.6540527,197.1166992 L502.6540527,198.081543 L501.1052246,198.081543 L501.1052246,204.7338867 C501.1052246,205.9613647 500.5002136,206.574707 499.2897949,206.574707 C498.9089355,206.574707 498.2828979,206.5707397 497.4108887,206.5620117 C497.3688354,206.2489929 497.3009949,205.8681335 497.2077637,205.4194336 C498.0456543,205.4872742 498.6847839,205.5209961 499.1247559,205.5209961 C499.7595215,205.5209961 500.0769043,205.199646 500.0769043,204.5561523 L500.0769043,198.081543 L495.8493652,198.081543 Z M496.0778809,199.668457 L496.9030762,199.1733398 C497.588623,200.1810303 498.1940308,201.1585693 498.7185059,202.105957 L497.7663574,202.6518555 C497.2672729,201.6957397 496.7043152,200.7015381 496.0778809,199.668457 Z M514.3908691,200.6333008 L514.8986816,201.4838867 C514.1496582,201.746521 513.3688965,202.0174866 512.5563965,202.2963867 C513.2336426,203.8158569 514.3908691,204.84021 516.0285645,205.3686523 C515.7492676,205.7157898 515.520752,205.9994507 515.3430176,206.2192383 C513.7687988,205.5507507 512.5714722,204.3343811 511.7502441,202.5693359 C511.5177612,202.6459045 511.2848816,202.7240601 511.052002,202.8041992 C511.2043457,203.2913818 511.2805176,203.8456116 511.2805176,204.4672852 C511.2805176,205.9823914 510.5568848,206.7397461 509.1096191,206.7397461 C508.585144,206.7397461 508.0265503,206.7314148 507.4338379,206.7143555 C507.400116,206.5028992 507.3283081,206.1771851 507.2180176,205.7368164 C507.8361206,205.804657 508.4074097,205.8383789 508.9318848,205.8383789 C509.8883972,205.8383789 510.3664551,205.360321 510.3664551,204.4038086 C510.3664551,204.0316772 510.3347168,203.6976318 510.2712402,203.4008789 C509.010437,204.6327209 506.8796082,205.6820679 503.8791504,206.5493164 C503.7268066,206.2954102 503.5578003,205.9994507 503.3713379,205.6606445 C506.2872925,204.9203491 508.4875488,203.8944092 509.9729004,202.5820313 C509.8673706,202.383667 509.7340698,202.1825256 509.572998,201.9790039 C508.401062,203.0204163 506.5622253,203.9134521 504.0568848,204.6577148 C503.9216003,204.4125366 503.74823,204.1249084 503.536377,203.7944336 C505.973877,203.1557007 507.8127136,202.355896 509.0524902,201.3950195 C508.9045105,201.2430725 508.7414551,201.0907288 508.5637207,200.9379883 C507.5314331,201.6493225 505.9699097,202.2630615 503.8791504,202.7788086 C503.7692566,202.5423584 503.6042175,202.2416382 503.3840332,201.8774414 C505.7580566,201.4335022 507.3937683,200.8411865 508.2907715,200.1000977 L505.5930176,200.1000977 L505.5930176,200.4936523 L504.717041,200.4936523 L504.717041,198.043457 C504.4250488,198.2426147 504.1203613,198.4417725 503.8029785,198.6401367 C503.6930847,198.3612366 503.5490723,198.0819397 503.3713379,197.8022461 C505.1403503,196.8040771 506.5285034,195.6234131 507.5354004,194.2602539 L508.6779785,194.3999023 C508.4538269,194.7260132 508.1915894,195.052124 507.8908691,195.3774414 L513.1213379,195.3774414 L513.1213379,196.1264648 L511.8835449,197.2436523 L515.0256348,197.2436523 L515.0256348,200.3920898 L514.1496582,200.3920898 L514.1496582,200.1000977 L509.5031738,200.1000977 C509.4103394,200.2147522 509.3044128,200.3270264 509.185791,200.4365234 C509.8757019,200.961792 510.3898621,201.5116577 510.7282715,202.0869141 C512.0953979,201.6473389 513.3161621,201.1625366 514.3908691,200.6333008 Z M511.8010254,196.1645508 L507.1101074,196.1645508 C506.7252808,196.5204163 506.2956238,196.880249 505.8215332,197.2436523 L510.6774902,197.2436523 Z M514.1496582,198.0688477 L510.4553223,198.0688477 C510.3454285,198.5219116 510.20578,198.9241943 510.036377,199.2749023 L514.1496582,199.2749023 Z M505.5930176,199.2749023 L508.9953613,199.2749023 C509.2028503,198.9325256 509.3635254,198.5306396 509.4777832,198.0688477 L505.5930176,198.0688477 Z" style="fill:rgb(0,0,0);stroke:none" clip-path="url(#clip28)" />
<clipPath id="clip29"><path d="M528,194 L541,194 L541,207 L528,207 L528,194 Z" /></clipPath>
<path d="M538.5,200 C538.5,197.5147095 536.4852295,195.5 534,195.5 C531.5147095,195.5 529.5,197.5147095 529.5,200 C529.5,202.4852905 531.5147095,204.5 534,204.5 C536.4852295,204.5 538.5,202.4852753 538.5,200 Z" style="fill:rgb(250,250,250);stroke:none" clip-path="url(#clip29)" />
<clipPath id="clip30"><path d="M528,194 L541,194 L541,207 L528,207 L528,194 Z" /></clipPath>
<path d="M538.5,200 C538.5,197.5147095 536.4852295,195.5 534,195.5 C531.5147095,195.5 529.5,197.5147095 529.5,200 C529.5,202.4852905 531.5147095,204.5 534,204.5 C536.4852295,204.5 538.5,202.4852753 538.5,200 Z" style="fill:none;stroke:rgb(128,128,128)" clip-path="url(#clip30)" />
<clipPath id="clip31"><path d="M528,194 L541,194 L541,207 L528,207 L528,194 Z" /></clipPath>
<path d="M532,200 L536,200" style="fill:none;stroke:rgb(150,160,200)" clip-path="url(#clip31)" />
<clipPath id="clip32"><path d="M547,186 L640,186 L640,215 L547,215 L547,186 Z" /></clipPath>
<path d="M549,213 L637,213 Z" style="fill:none;stroke:rgb(128,128,128)" clip-path="url(#clip32)" />
<clipPath id="clip33"><path d="M557,189 L630,189 L630,212 L557,212 L557,189 Z" /></clipPath>
<path d="M561.1474609,197.5419922 C561.8798828,198.6004639 562.5883789,199.6327515 563.2739258,200.6396484 C563.777832,199.4002686 564.097168,198.0585327 564.2324219,196.6152344 L560.2460938,196.6152344 L560.2460938,195.6503906 L565.2734375,195.6503906 L565.2734375,196.5771484 C565.0410156,198.4140015 564.590332,200.0834351 563.9213867,201.5854492 C564.6113281,202.5971069 565.277832,203.5809937 565.9208984,204.5371094 L565.0068359,205.1464844 C564.4780273,204.3133545 563.9428711,203.4774475 563.4008789,202.6391602 C562.6479492,204.0189819 561.6894531,205.2397156 560.5253906,206.3017578 C560.3564453,206.0395203 560.1489258,205.7304688 559.9033203,205.375 C561.1137695,204.2879639 562.0742188,203.0604858 562.7851563,201.6933594 C561.9980469,200.4877014 561.1982422,199.2772827 560.3857422,198.0625 Z M565.78125,197.0341797 L570.0087891,197.0341797 L570.0087891,194.3173828 L571.0371094,194.3173828 L571.0371094,197.0341797 L572.5859375,197.0341797 L572.5859375,197.9990234 L571.0371094,197.9990234 L571.0371094,204.6513672 C571.0371094,205.8788452 570.4321289,206.4921875 569.2216797,206.4921875 C568.8408203,206.4921875 568.2148438,206.4882202 567.3427734,206.4794922 C567.3007813,206.1664734 567.2329102,205.785614 567.1396484,205.3369141 C567.9775391,205.4047546 568.6166992,205.4384766 569.0566406,205.4384766 C569.6914063,205.4384766 570.0087891,205.1171265 570.0087891,204.4736328 L570.0087891,197.9990234 L565.78125,197.9990234 Z M566.0097656,199.5859375 L566.8349609,199.0908203 C567.5205078,200.0985107 568.1259766,201.0760498 568.6503906,202.0234375 L567.6982422,202.5693359 C567.1992188,201.6132202 566.6362305,200.6190186 566.0097656,199.5859375 Z M584.3227539,200.5507813 L584.8305664,201.4013672 C584.081543,201.6640015 583.3007813,201.934967 582.4882813,202.2138672 C583.1655273,203.7333374 584.3227539,204.7576904 585.9604492,205.2861328 C585.6811523,205.6332703 585.4526367,205.9169312 585.2749023,206.1367188 C583.7006836,205.4682312 582.503418,204.2518616 581.6821289,202.4868164 C581.449707,202.563385 581.2167969,202.6415405 580.9838867,202.7216797 C581.1362305,203.2088623 581.2124023,203.763092 581.2124023,204.3847656 C581.2124023,205.8998718 580.4887695,206.6572266 579.0415039,206.6572266 C578.5170898,206.6572266 577.9584961,206.6488953 577.3657227,206.6318359 C577.3320313,206.4203796 577.2602539,206.0946655 577.1499023,205.6542969 C577.7680664,205.7221375 578.3393555,205.7558594 578.8637695,205.7558594 C579.8203125,205.7558594 580.2983398,205.2778015 580.2983398,204.3212891 C580.2983398,203.9491577 580.2666016,203.6151123 580.203125,203.3183594 C578.9423828,204.5502014 576.8115234,205.5995483 573.8110352,206.4667969 C573.6586914,206.2128906 573.4897461,205.9169312 573.3032227,205.578125 C576.2192383,204.8378296 578.4194336,203.8118896 579.9047852,202.4995117 C579.7993164,202.3011475 579.6660156,202.1000061 579.5048828,201.8964844 C578.3330078,202.9378967 576.4941406,203.8309326 573.9887695,204.5751953 C573.8535156,204.3300171 573.6801758,204.0423889 573.4682617,203.7119141 C575.9057617,203.0731812 577.7446289,202.2733765 578.984375,201.3125 C578.8364258,201.160553 578.6733398,201.0082092 578.4956055,200.8554688 C577.4633789,201.566803 575.9018555,202.180542 573.8110352,202.6962891 C573.7011719,202.4598389 573.5361328,202.1591187 573.315918,201.7949219 C575.6899414,201.3509827 577.3256836,200.758667 578.2226563,200.0175781 L575.5249023,200.0175781 L575.5249023,200.4111328 L574.6489258,200.4111328 L574.6489258,197.9609375 C574.3569336,198.1600952 574.0522461,198.3592529 573.7348633,198.5576172 C573.625,198.278717 573.480957,197.9994202 573.3032227,197.7197266 C575.0722656,196.7215576 576.4604492,195.5408936 577.4672852,194.1777344 L578.6098633,194.3173828 C578.3857422,194.6434937 578.1235352,194.9696045 577.8227539,195.2949219 L583.0532227,195.2949219 L583.0532227,196.0439453 L581.8154297,197.1611328 L584.9575195,197.1611328 L584.9575195,200.3095703 L584.081543,200.3095703 L584.081543,200.0175781 L579.4350586,200.0175781 C579.3422852,200.1322327 579.2363281,200.2445068 579.1176758,200.3540039 C579.8076172,200.8792725 580.3217773,201.4291382 580.6601563,202.0043945 C582.0273438,201.5648193 583.2480469,201.0800171 584.3227539,200.5507813 Z M581.7329102,196.0820313 L577.0419922,196.0820313 C576.6572266,196.4378967 576.2275391,196.7977295 575.753418,197.1611328 L580.609375,197.1611328 Z M584.081543,197.9863281 L580.387207,197.9863281 C580.2773438,198.4393921 580.1376953,198.8416748 579.9682617,199.1923828 L584.081543,199.1923828 Z M575.5249023,199.1923828 L578.9272461,199.1923828 C579.1347656,198.8500061 579.2954102,198.4481201 579.409668,197.9863281 L575.5249023,197.9863281 Z M590.3085938,199.5351563 L593.7236328,199.5351563 L593.7236328,198.7353516 C592.5048828,198.7781982 591.1591797,198.8202515 589.6865234,198.8623047 C589.6445313,198.6341858 589.5849609,198.3802795 589.5087891,198.1005859 C593.5375977,198.0077515 596.5,197.906189 598.3955078,197.7958984 L598.5986328,198.5322266 C597.4985352,198.5917358 596.1484375,198.6512451 594.5488281,198.7099609 L594.5488281,199.5351563 L598.0273438,199.5351563 L598.0273438,202.0996094 L597.1894531,202.0996094 L597.1894531,201.8457031 L594.5488281,201.8457031 L594.5488281,202.6582031 L598.8271484,202.6582031 L598.8271484,205.4130859 C598.8271484,206.2763672 598.3999023,206.7080078 597.5449219,206.7080078 C597.1220703,206.7080078 596.5927734,206.6996765 595.9580078,206.6826172 C595.9160156,206.4457703 595.8525391,206.1537781 595.7675781,205.8066406 C596.3603516,205.8574219 596.8637695,205.8828125 597.2783203,205.8828125 C597.7353516,205.8828125 597.9638672,205.6669922 597.9638672,205.2353516 L597.9638672,203.34375 L594.5488281,203.34375 L594.5488281,204.4736328 C595.0400391,204.4486389 595.5263672,204.4188843 596.0087891,204.3847656 C595.9160156,204.1903687 595.8183594,203.9959717 595.7167969,203.8007813 L596.4023438,203.4833984 C596.7070313,204.0340576 597.0117188,204.6263733 597.3164063,205.2607422 L596.5673828,205.6035156 C596.4912109,205.4257813 596.4150391,205.2524109 596.3388672,205.0830078 C594.9169922,205.1425171 593.3261719,205.2567749 591.5654297,205.4257813 L591.4130859,204.6132813 C592.1918945,204.5882874 592.9619141,204.5545654 593.7236328,204.5117188 L593.7236328,203.34375 L590.5751953,203.34375 L590.5751953,206.7714844 L589.7119141,206.7714844 L589.7119141,202.6582031 L593.7236328,202.6582031 L593.7236328,201.8457031 L591.1464844,201.8457031 L591.1464844,202.0996094 L590.3085938,202.0996094 Z M589.0517578,200.3095703 C589.0517578,203.187439 588.4594727,205.3583374 587.2744141,206.8222656 C587.0800781,206.5263062 586.8681641,206.2426453 586.6396484,205.9716797 C587.6723633,204.7870483 588.1845703,202.8406982 588.1757813,200.1318359 L588.1757813,194.8378906 L598.6240234,194.8378906 L598.6240234,197.5419922 L597.7607422,197.5419922 L597.7607422,197.2880859 L589.0517578,197.2880859 Z M597.7607422,196.5517578 L597.7607422,195.5742188 L589.0517578,195.5742188 L589.0517578,196.5517578 Z M597.1894531,200.2207031 L594.5488281,200.2207031 L594.5488281,201.1601563 L597.1894531,201.1601563 Z M591.1464844,201.1601563 L593.7236328,201.1601563 L593.7236328,200.2207031 L591.1464844,200.2207031 Z M603.8862305,205.3496094 L607.9995117,205.3496094 L607.9995117,201.9472656 L604.7241211,201.9472656 L604.7241211,201.0585938 L607.9995117,201.0585938 L607.9995117,197.9863281 L605.9428711,197.9863281 C605.6298828,198.7908936 605.2661133,199.5906982 604.8510742,200.3857422 C604.4873047,200.0897827 604.2036133,199.8953857 604.0004883,199.8017578 C604.847168,198.2703857 605.4394531,196.7044983 605.777832,195.1044922 L606.7807617,195.3710938 C606.637207,195.9554749 606.4677734,196.5311279 606.2729492,197.0976563 L607.9995117,197.0976563 L607.9995117,194.3046875 L609.0024414,194.3046875 L609.0024414,197.0976563 L612.3413086,197.0976563 L612.3413086,197.9863281 L609.0024414,197.9863281 L609.0024414,201.0585938 L612.0874023,201.0585938 L612.0874023,201.9472656 L609.0024414,201.9472656 L609.0024414,205.3496094 L612.7348633,205.3496094 L612.7348633,206.2382813 L603.8862305,206.2382813 Z M601.9057617,194.2919922 L602.8833008,194.2919922 L602.8833008,196.7294922 L603.4291992,196.4248047 C603.8696289,197.1107483 604.2460938,197.7538452 604.559082,198.3544922 L603.7719727,198.8623047 C603.4760742,198.2362671 603.1796875,197.6820374 602.8833008,197.1992188 L602.8833008,206.8095703 L601.9057617,206.8095703 Z M600.7250977,197.1611328 L601.5629883,197.3515625 C601.4106445,198.3759155 601.1992188,199.4637451 600.9282227,200.6142578 C600.699707,200.5301514 600.4077148,200.4496155 600.0522461,200.3730469 C600.3061523,199.4510498 600.5307617,198.3802795 600.7250977,197.1611328 Z M616.5751953,205.4765625 L617.8574219,205.4765625 L617.8574219,197.6181641 L620.8535156,197.6181641 L620.8535156,196.4628906 L617.171875,196.4628906 L617.171875,195.5996094 L620.8535156,195.5996094 L620.8535156,194.2539063 L621.8183594,194.2539063 L621.8183594,195.5996094 L625.8173828,195.5996094 L625.8173828,196.4628906 L621.8183594,196.4628906 L621.8183594,197.6181641 L624.890625,197.6181641 L624.890625,205.4765625 L626.0966797,205.4765625 L626.0966797,206.3398438 L616.5751953,206.3398438 Z M613.4267578,200.4746094 C614.5610352,198.7821655 615.4414063,196.7298889 616.0673828,194.3173828 L617.0068359,194.5966797 C616.668457,195.6888733 616.300293,196.7128296 615.9023438,197.6689453 L615.9023438,206.6953125 L614.9755859,206.6953125 L614.9755859,199.6240234 C614.6118164,200.3016357 614.2265625,200.9320374 613.8203125,201.515625 C613.7021484,201.160553 613.5708008,200.8134155 613.4267578,200.4746094 Z M618.796875,205.4765625 L623.9511719,205.4765625 L623.9511719,204.3212891 L618.796875,204.3212891 Z M623.9511719,198.4560547 L618.796875,198.4560547 L618.796875,199.5986328 L623.9511719,199.5986328 Z M618.796875,201.5537109 L623.9511719,201.5537109 L623.9511719,200.4111328 L618.796875,200.4111328 Z M618.796875,203.5087891 L623.9511719,203.5087891 L623.9511719,202.3662109 L618.796875,202.3662109 Z" style="fill:rgb(0,0,0);stroke:none" clip-path="url(#clip33)" />
<clipPath id="clip34"><path d="M337,250 L512,250 L512,297 L337,297 Z M343,256 C340.2385864,256 338,258.2385864 338,261 L338,290 C338,292.7614136 340.2385864,295 343,295 L395,295 C397.7614136,295 400,292.7614136 400,290 L400,261 C400,258.2385864 397.7614136,256 395,256 Z" /></clipPath>
<path d="M412.9998169,275.7200012 C412.9998169,275.8745728 414.7918396,276 416.9998169,276 L422,276" style="fill:none;stroke:rgb(128,128,128)" clip-path="url(#clip34)" />
<clipPath id="clip35"><path d="M336,249 L513,249 L513,298 L336,298 L336,249 Z" /></clipPath>
<path d="M400,275.6549988 L412.9998169,275.7200012" style="fill:none;stroke:rgb(128,128,128)" clip-path="url(#clip35)" />
<clipPath id="clip36"><path d="M336,254 L403,254 L403,298 L336,298 L336,254 Z" /></clipPath>
<path d="M343,256 C340.2385864,256 338,258.2385864 338,261 L338,290 C338,292.7614136 340.2385864,295 343,295 L395,295 C397.7614136,295 400,292.7614136 400,290 L400,261 C400,258.2385864 397.7614136,256 395,256 Z" style="fill:rgb(255,255,255);stroke:none" clip-path="url(#clip36)" />
<clipPath id="clip37"><path d="M336,254 L403,254 L403,298 L336,298 L336,254 Z" /></clipPath>
<path d="M343,256 C340.2385864,256 338,258.2385864 338,261 L338,290 C338,292.7614136 340.2385864,295 343,295 L395,295 C397.7614136,295 400,292.7614136 400,290 L400,261 C400,258.2385864 397.7614136,256 395,256 Z" style="fill:none;stroke:rgb(128,128,128)" clip-path="url(#clip37)" />
<clipPath id="clip38"><path d="M349,262 L390,262 L390,290 L349,290 L349,262 Z" /></clipPath>
<path d="M353.5895996,272.2397461 C354.5473022,273.6239014 355.473877,274.9738159 356.3703613,276.2905273 C357.0292358,274.6697998 357.4468689,272.9152222 357.6237793,271.027832 L352.4108887,271.027832 L352.4108887,269.7661133 L358.9851074,269.7661133 L358.9851074,270.9780273 C358.6810913,273.3800659 358.0917358,275.5631714 357.217041,277.5273438 C358.1192322,278.8502808 358.9908142,280.1369019 359.8317871,281.387207 L358.6364746,282.184082 C357.9449158,281.0946045 357.2450562,280.0014954 356.536377,278.9052734 C355.5516968,280.7096558 354.2982788,282.3059998 352.776123,283.6948242 C352.5551147,283.3518982 352.283783,282.9477539 351.9626465,282.4829102 C353.5455017,281.0614014 354.8015137,279.4562378 355.7312012,277.668457 C354.7019043,276.0918274 353.6560059,274.5089722 352.5935059,272.9204102 Z M359.6491699,271.5756836 L365.1774902,271.5756836 L365.1774902,268.0229492 L366.5222168,268.0229492 L366.5222168,271.5756836 L368.5476074,271.5756836 L368.5476074,272.8374023 L366.5222168,272.8374023 L366.5222168,281.5366211 C366.5222168,283.1417847 365.7310486,283.9438477 364.1481934,283.9438477 C363.6501465,283.9438477 362.8314819,283.9386597 361.6911621,283.9272461 C361.6361694,283.5179138 361.5474548,283.0198669 361.4255371,282.4331055 C362.5212402,282.5218201 363.3570251,282.565918 363.932373,282.565918 C364.7624512,282.565918 365.1774902,282.1456909 365.1774902,281.3041992 L365.1774902,272.8374023 L359.6491699,272.8374023 Z M359.947998,274.9125977 L361.0270996,274.2651367 C361.923584,275.5828857 362.715271,276.8612061 363.401123,278.1000977 L362.1560059,278.8139648 C361.5033569,277.5636597 360.7671814,276.2635498 359.947998,274.9125977 Z M383.895752,276.1743164 L384.5598145,277.2866211 C383.5803223,277.6300659 382.5593262,277.9844055 381.4968262,278.3491211 C382.3824158,280.3361206 383.895752,281.6756592 386.0373535,282.3666992 C385.6721191,282.8206482 385.373291,283.1915894 385.1408691,283.4790039 C383.0822754,282.6048279 381.5165405,281.0141907 380.442627,278.7060547 C380.1386108,278.8061829 379.8340759,278.9083862 379.529541,279.0131836 C379.7287598,279.6502686 379.8283691,280.3750305 379.8283691,281.1879883 C379.8283691,283.169281 378.8820801,284.159668 376.989502,284.159668 C376.3036499,284.159668 375.5731812,284.1487732 374.7980957,284.1264648 C374.7539978,283.8499451 374.6600952,283.4240112 374.5158691,282.8481445 C375.3241577,282.9368591 376.071228,282.980957 376.7570801,282.980957 C378.0079041,282.980957 378.6330566,282.3558044 378.6330566,281.1049805 C378.6330566,280.6183472 378.5915527,280.1815186 378.5085449,279.793457 C376.8598022,281.4043274 374.0733337,282.7765503 370.1496582,283.9106445 C369.9504395,283.5786133 369.7294312,283.1915894 369.4855957,282.7485352 C373.2987671,281.7804565 376.1760254,280.4388428 378.1184082,278.7226563 C377.9804077,278.4632568 377.8060913,278.2002258 377.595459,277.934082 C376.0629272,279.295929 373.6582947,280.4637451 370.3820801,281.4370117 C370.2051697,281.116394 369.9784546,280.7402649 369.701416,280.3081055 C372.888916,279.4728394 375.2935486,278.4269409 376.9147949,277.1704102 C376.721283,276.9717102 376.5080566,276.7724915 376.2756348,276.5727539 C374.9257202,277.5029602 372.883728,278.305542 370.1496582,278.9799805 C370.0059509,278.6707764 369.7901306,278.2775269 369.5021973,277.8012695 C372.6066895,277.2207336 374.745697,276.446167 375.9187012,275.4770508 L372.3908691,275.4770508 L372.3908691,275.9916992 L371.2453613,275.9916992 L371.2453613,272.7875977 C370.8635254,273.0480347 370.4650879,273.3084717 370.0500488,273.5678711 C369.9063416,273.2031555 369.7180176,272.8379211 369.4855957,272.472168 C371.7989197,271.1668701 373.6141968,269.6229248 374.9309082,267.840332 L376.4250488,268.0229492 C376.1319275,268.4494019 375.7890015,268.8758545 375.395752,269.3012695 L382.2355957,269.3012695 L382.2355957,270.2807617 L380.6169434,271.7416992 L384.7258301,271.7416992 L384.7258301,275.8588867 L383.5803223,275.8588867 L383.5803223,275.4770508 L377.5041504,275.4770508 C377.3827515,275.6269836 377.2442322,275.7738037 377.0891113,275.9169922 C377.9913025,276.6038818 378.6636658,277.322937 379.1062012,278.0751953 C380.8939819,277.5003662 382.4903259,276.866394 383.895752,276.1743164 Z M380.5090332,270.3305664 L374.3747559,270.3305664 C373.871521,270.795929 373.3096619,271.2664795 372.6896973,271.7416992 L379.0397949,271.7416992 Z M383.5803223,272.8208008 L378.7492676,272.8208008 C378.6055603,273.413269 378.4229431,273.9393311 378.201416,274.3979492 L383.5803223,274.3979492 Z M372.3908691,274.3979492 L376.8400879,274.3979492 C377.1114197,273.9502258 377.3215332,273.4246826 377.4709473,272.8208008 L372.3908691,272.8208008 Z" style="fill:rgb(48,48,48);stroke:none" clip-path="url(#clip38)" />
<clipPath id="clip39"><path d="M401,270 L414,270 L414,283 L401,283 L401,270 Z" /></clipPath>
<path d="M411.5,276 C411.5,273.5147095 409.4852905,271.5 407,271.5 C404.5147095,271.5 402.5,273.5147095 402.5,276 C402.5,278.4852905 404.5147095,280.5 407,280.5 C409.4852905,280.5 411.5,278.48526 411.5,276 Z" style="fill:rgb(250,250,250);stroke:none" clip-path="url(#clip39)" />
<clipPath id="clip40"><path d="M401,270 L414,270 L414,283 L401,283 L401,270 Z" /></clipPath>
<path d="M411.5,276 C411.5,273.5147095 409.4852905,271.5 407,271.5 C404.5147095,271.5 402.5,273.5147095 402.5,276 C402.5,278.4852905 404.5147095,280.5 407,280.5 C409.4852905,280.5 411.5,278.48526 411.5,276 Z" style="fill:none;stroke:rgb(128,128,128)" clip-path="url(#clip40)" />
<clipPath id="clip41"><path d="M401,270 L414,270 L414,283 L401,283 L401,270 Z" /></clipPath>
<path d="M405,276 L409,276" style="fill:none;stroke:rgb(150,160,200)" clip-path="url(#clip41)" />
<clipPath id="clip42"><path d="M420,249 L513,249 L513,278 L420,278 L420,249 Z" /></clipPath>
<path d="M422,276 L510,276 Z" style="fill:none;stroke:rgb(128,128,128)" clip-path="url(#clip42)" />
<clipPath id="clip43"><path d="M430,252 L503,252 L503,275 L430,275 L430,252 Z" /></clipPath>
<path d="M434.1474609,260.5419922 C434.8798218,261.6004639 435.5883789,262.6327515 436.2739258,263.6396484 C436.777771,262.4002686 437.0971375,261.0585327 437.2324219,259.6152344 L433.2460938,259.6152344 L433.2460938,258.6503906 L438.2734375,258.6503906 L438.2734375,259.5771484 C438.0409546,261.4140015 437.590271,263.0834351 436.9213867,264.5854492 C437.6112976,265.5971069 438.2778015,266.5809937 438.9208984,267.5371094 L438.0068359,268.1464844 C437.4779968,267.3133545 436.9428101,266.4774475 436.4008789,265.6391602 C435.6478882,267.0189819 434.6893921,268.2397156 433.5253906,269.3017578 C433.3563843,269.0395203 433.1488953,268.7304688 432.9033203,268.375 C434.113739,267.2879639 435.0742188,266.0604858 435.7851563,264.6933594 C434.9980469,263.4877014 434.1982422,262.2772827 433.3857422,261.0625 Z M438.78125,260.0341797 L443.0087891,260.0341797 L443.0087891,257.3173828 L444.0371094,257.3173828 L444.0371094,260.0341797 L445.5859375,260.0341797 L445.5859375,260.9990234 L444.0371094,260.9990234 L444.0371094,267.6513672 C444.0371094,268.8788452 443.4320984,269.4921875 442.2216797,269.4921875 C441.8408203,269.4921875 441.2147827,269.4882202 440.3427734,269.4794922 C440.3007202,269.1664734 440.2328796,268.785614 440.1396484,268.3369141 C440.9775391,268.4047546 441.6166687,268.4384766 442.0566406,268.4384766 C442.6914063,268.4384766 443.0087891,268.1171265 443.0087891,267.4736328 L443.0087891,260.9990234 L438.78125,260.9990234 Z M439.0097656,262.5859375 L439.8349609,262.0908203 C440.5205078,263.0985107 441.1259155,264.0760498 441.6503906,265.0234375 L440.6982422,265.5693359 C440.1991577,264.6132202 439.6362,263.6190186 439.0097656,262.5859375 Z M457.3227539,263.5507813 L457.8305664,264.4013672 C457.081543,264.6640015 456.3007813,264.934967 455.4882813,265.2138672 C456.1654968,266.7333374 457.3227539,267.7576904 458.9604492,268.2861328 C458.6811523,268.6332703 458.4526367,268.9169312 458.2749023,269.1367188 C456.7006836,268.4682312 455.5033569,267.2518616 454.6821289,265.4868164 C454.449646,265.563385 454.2167664,265.6415405 453.9838867,265.7216797 C454.1362305,266.2088623 454.2124023,266.763092 454.2124023,267.3847656 C454.2124023,268.8998718 453.4887695,269.6572266 452.0415039,269.6572266 C451.5170288,269.6572266 450.9584351,269.6488953 450.3657227,269.6318359 C450.3320007,269.4203796 450.2601929,269.0946655 450.1499023,268.6542969 C450.7680054,268.7221375 451.3392944,268.7558594 451.8637695,268.7558594 C452.820282,268.7558594 453.2983398,268.2778015 453.2983398,267.3212891 C453.2983398,266.9491577 453.2666016,266.6151123 453.203125,266.3183594 C451.9423218,267.5502014 449.8114929,268.5995483 446.8110352,269.4667969 C446.6586914,269.2128906 446.4896851,268.9169312 446.3032227,268.578125 C449.2191772,267.8378296 451.4194336,266.8118896 452.9047852,265.4995117 C452.7992554,265.3011475 452.6659546,265.1000061 452.5048828,264.8964844 C451.3329468,265.9378967 449.4941101,266.8309326 446.9887695,267.5751953 C446.8534851,267.3300171 446.6801147,267.0423889 446.4682617,266.7119141 C448.9057617,266.0731812 450.7445984,265.2733765 451.984375,264.3125 C451.8363953,264.160553 451.6733398,264.0082092 451.4956055,263.8554688 C450.4633179,264.566803 448.9017944,265.180542 446.8110352,265.6962891 C446.7011414,265.4598389 446.5361023,265.1591187 446.315918,264.7949219 C448.6899414,264.3509827 450.3256531,263.758667 451.2226563,263.0175781 L448.5249023,263.0175781 L448.5249023,263.4111328 L447.6489258,263.4111328 L447.6489258,260.9609375 C447.3569336,261.1600952 447.0522461,261.3592529 446.7348633,261.5576172 C446.6249695,261.278717 446.480957,260.9994202 446.3032227,260.7197266 C448.0722351,259.7215576 449.4603882,258.5408936 450.4672852,257.1777344 L451.6098633,257.3173828 C451.3857117,257.6434937 451.1234741,257.9696045 450.8227539,258.2949219 L456.0532227,258.2949219 L456.0532227,259.0439453 L454.8154297,260.1611328 L457.9575195,260.1611328 L457.9575195,263.3095703 L457.081543,263.3095703 L457.081543,263.0175781 L452.4350586,263.0175781 C452.3422241,263.1322327 452.2362976,263.2445068 452.1176758,263.3540039 C452.8075867,263.8792725 453.3217468,264.4291382 453.6601563,265.0043945 C455.0272827,264.5648193 456.2480164,264.0800171 457.3227539,263.5507813 Z M454.7329102,259.0820313 L450.0419922,259.0820313 C449.6571655,259.4378967 449.2275085,259.7977295 448.753418,260.1611328 L453.609375,260.1611328 Z M457.081543,260.9863281 L453.387207,260.9863281 C453.2773132,261.4393921 453.1376648,261.8416748 452.9682617,262.1923828 L457.081543,262.1923828 Z M448.5249023,262.1923828 L451.9272461,262.1923828 C452.1347351,261.8500061 452.2954102,261.4481201 452.409668,260.9863281 L448.5249023,260.9863281 Z M463.3085938,262.5351563 L466.7236328,262.5351563 L466.7236328,261.7353516 C465.5048828,261.7781982 464.1591797,261.8202515 462.6865234,261.8623047 C462.6444702,261.6341858 462.5849609,261.3802795 462.5087891,261.1005859 C466.5375671,261.0077515 469.499939,260.906189 471.3955078,260.7958984 L471.5986328,261.5322266 C470.4985046,261.5917358 469.1484375,261.6512451 467.5488281,261.7099609 L467.5488281,262.5351563 L471.0273438,262.5351563 L471.0273438,265.0996094 L470.1894531,265.0996094 L470.1894531,264.8457031 L467.5488281,264.8457031 L467.5488281,265.6582031 L471.8271484,265.6582031 L471.8271484,268.4130859 C471.8271484,269.2763672 471.3998718,269.7080078 470.5449219,269.7080078 C470.1220093,269.7080078 469.5927734,269.6996765 468.9580078,269.6826172 C468.9159546,269.4457703 468.852478,269.1537781 468.7675781,268.8066406 C469.3602905,268.8574219 469.863739,268.8828125 470.2783203,268.8828125 C470.7353516,268.8828125 470.9638672,268.6669922 470.9638672,268.2353516 L470.9638672,266.34375 L467.5488281,266.34375 L467.5488281,267.4736328 C468.039978,267.4486389 468.5263672,267.4188843 469.0087891,267.3847656 C468.9159546,267.1903687 468.8183594,266.9959717 468.7167969,266.8007813 L469.4023438,266.4833984 C469.7070313,267.0340576 470.0117188,267.6263733 470.3164063,268.2607422 L469.5673828,268.6035156 C469.4912109,268.4257813 469.4150391,268.2524109 469.3388672,268.0830078 C467.9169922,268.1425171 466.3261108,268.2567749 464.5654297,268.4257813 L464.4130859,267.6132813 C465.191864,267.5882874 465.9619141,267.5545654 466.7236328,267.5117188 L466.7236328,266.34375 L463.5751953,266.34375 L463.5751953,269.7714844 L462.7119141,269.7714844 L462.7119141,265.6582031 L466.7236328,265.6582031 L466.7236328,264.8457031 L464.1464844,264.8457031 L464.1464844,265.0996094 L463.3085938,265.0996094 Z M462.0517578,263.3095703 C462.0517578,266.187439 461.4594421,268.3583374 460.2744141,269.8222656 C460.0800171,269.5263062 459.8681641,269.2426453 459.6396484,268.9716797 C460.6723328,267.7870483 461.1845093,265.8406982 461.1757813,263.1318359 L461.1757813,257.8378906 L471.6240234,257.8378906 L471.6240234,260.5419922 L470.7607422,260.5419922 L470.7607422,260.2880859 L462.0517578,260.2880859 Z M470.7607422,259.5517578 L470.7607422,258.5742188 L462.0517578,258.5742188 L462.0517578,259.5517578 Z M470.1894531,263.2207031 L467.5488281,263.2207031 L467.5488281,264.1601563 L470.1894531,264.1601563 Z M464.1464844,264.1601563 L466.7236328,264.1601563 L466.7236328,263.2207031 L464.1464844,263.2207031 Z M476.8862305,268.3496094 L480.9995117,268.3496094 L480.9995117,264.9472656 L477.7241211,264.9472656 L477.7241211,264.0585938 L480.9995117,264.0585938 L480.9995117,260.9863281 L478.9428711,260.9863281 C478.6298523,261.7908936 478.2660522,262.5906982 477.8510742,263.3857422 C477.4872742,263.0897827 477.2036133,262.8953857 477.0004883,262.8017578 C477.8471069,261.2703857 478.4394226,259.7044983 478.777832,258.1044922 L479.7807617,258.3710938 C479.637146,258.9554749 479.4677429,259.5311279 479.2729492,260.0976563 L480.9995117,260.0976563 L480.9995117,257.3046875 L482.0024414,257.3046875 L482.0024414,260.0976563 L485.3413086,260.0976563 L485.3413086,260.9863281 L482.0024414,260.9863281 L482.0024414,264.0585938 L485.0874023,264.0585938 L485.0874023,264.9472656 L482.0024414,264.9472656 L482.0024414,268.3496094 L485.7348633,268.3496094 L485.7348633,269.2382813 L476.8862305,269.2382813 Z M474.9057617,257.2919922 L475.8833008,257.2919922 L475.8833008,259.7294922 L476.4291992,259.4248047 C476.8695679,260.1107483 477.2460632,260.7538452 477.559082,261.3544922 L476.7719727,261.8623047 C476.4760132,261.2362671 476.179657,260.6820374 475.8833008,260.1992188 L475.8833008,269.8095703 L474.9057617,269.8095703 Z M473.7250977,260.1611328 L474.5629883,260.3515625 C474.4106445,261.3759155 474.1991882,262.4637451 473.9282227,263.6142578 C473.699707,263.5301514 473.4077148,263.4496155 473.0522461,263.3730469 C473.3061523,262.4510498 473.5307007,261.3802795 473.7250977,260.1611328 Z M489.5751953,268.4765625 L490.8574219,268.4765625 L490.8574219,260.6181641 L493.8535156,260.6181641 L493.8535156,259.4628906 L490.171875,259.4628906 L490.171875,258.5996094 L493.8535156,258.5996094 L493.8535156,257.2539063 L494.8183594,257.2539063 L494.8183594,258.5996094 L498.8173828,258.5996094 L498.8173828,259.4628906 L494.8183594,259.4628906 L494.8183594,260.6181641 L497.890625,260.6181641 L497.890625,268.4765625 L499.0966797,268.4765625 L499.0966797,269.3398438 L489.5751953,269.3398438 Z M486.4267578,263.4746094 C487.5610046,261.7821655 488.4413452,259.7298889 489.0673828,257.3173828 L490.0068359,257.5966797 C489.6684265,258.6888733 489.3002625,259.7128296 488.9023438,260.6689453 L488.9023438,269.6953125 L487.9755859,269.6953125 L487.9755859,262.6240234 C487.6117859,263.3016357 487.2265625,263.9320374 486.8203125,264.515625 C486.7020874,264.160553 486.5707703,263.8134155 486.4267578,263.4746094 Z M491.796875,268.4765625 L496.9511719,268.4765625 L496.9511719,267.3212891 L491.796875,267.3212891 Z M496.9511719,261.4560547 L491.796875,261.4560547 L491.796875,262.5986328 L496.9511719,262.5986328 Z M491.796875,264.5537109 L496.9511719,264.5537109 L496.9511719,263.4111328 L491.796875,263.4111328 Z M491.796875,266.5087891 L496.9511719,266.5087891 L496.9511719,265.3662109 L491.796875,265.3662109 Z" style="fill:rgb(0,0,0);stroke:none" clip-path="url(#clip43)" />
<clipPath id="clip44"><path d="M18,178 L446,178 L446,317 L18,317 L18,178 Z" /></clipPath>
<path d="M442.6315918,275 C22,491 22,226 150,184.4864807" style="fill:none;stroke:rgb(0,104,207);stroke-width:3;stroke-dasharray:3,3;stroke-dashoffset:0" clip-path="url(#clip44)" />
<clipPath id="clip45"><path d="M18,334 L446,334 L446,494 L18,494 L18,334 Z" /></clipPath>
<path d="M442.6315918,275 C22,491 22,226 150,184.4864807" style="fill:none;stroke:rgb(0,104,207);stroke-width:3;stroke-dasharray:3,3;stroke-dashoffset:0" clip-path="url(#clip45)" />
<clipPath id="clip46"><path d="M18,315 L78,315 L78,336 L18,336 L18,315 Z" /></clipPath>
<path d="M442.6315918,275 C22,491 22,226 150,184.4864807" style="fill:none;stroke:rgb(0,104,207);stroke-width:3;stroke-dasharray:3,3;stroke-dashoffset:0" clip-path="url(#clip46)" />
<clipPath id="clip47"><path d="M104,315 L446,315 L446,336 L104,336 L104,315 Z" /></clipPath>
<path d="M442.6315918,275 C22,491 22,226 150,184.4864807" style="fill:none;stroke:rgb(0,104,207);stroke-width:3;stroke-dasharray:3,3;stroke-dashoffset:0" clip-path="url(#clip47)" />
<clipPath id="clip48"><path d="M76,315 L106,315 L106,336 L76,336 L76,315 Z" /></clipPath>
<path d="M442.6315918,275 C22,491 22,226 150,184.4864807" style="fill:none;stroke:rgb(0,104,207);opacity:0.09803921568627451;stroke-width:3;stroke-dasharray:3,3;stroke-dashoffset:0" clip-path="url(#clip48)" />
<clipPath id="clip49"><path d="M18,178 L446,178 L446,494 L18,494 L18,178 Z" /></clipPath>
<path d="M143.3046875,191.9143372 L150,184.4864807 L140.219635,182.4020996" style="fill:none;stroke:rgb(0,104,207);stroke-width:3" clip-path="url(#clip49)" />
<clipPath id="clip50"><path d="M76,315 L106,315 L106,336 L76,336 L76,315 Z" /></clipPath>
<path d="M82.9052734,321.5390625 L85.1083984,321.5390625 C84.7608643,321.1292725 84.3349609,320.6916504 83.8310547,320.2265625 L84.4638672,319.6640625 C84.9718018,320.0939941 85.4211426,320.512207 85.8115234,320.9179688 L85.1318359,321.5390625 L87.7509766,321.5390625 L87.2763672,321.1640625 C87.7216797,320.7114258 88.1358643,320.21521 88.5185547,319.6757813 L89.3037109,320.2148438 C88.9052734,320.6799316 88.5031738,321.121582 88.0966797,321.5390625 L90.1123047,321.5390625 L90.1123047,324.7265625 L89.2451172,324.7265625 L89.2451172,324.2929688 L86.9951172,324.2929688 L86.9951172,325.4882813 L90.6044922,325.4882813 C90.5733643,326.30896 90.5264893,327.0238037 90.4638672,327.6328125 C90.3935547,328.4769287 89.9248047,328.8988037 89.0576172,328.8984375 C88.6357422,328.8988037 88.2255859,328.8947754 87.8271484,328.8867188 C87.772583,328.6135254 87.7062988,328.3088379 87.6279297,327.9726563 C88.0889893,328.012207 88.5302734,328.0316162 88.9521484,328.03125 C89.3586426,328.0239258 89.5772705,327.8283691 89.6083984,327.4453125 C89.647583,327.1018066 89.6750488,326.7073975 89.6904297,326.2617188 L86.9951172,326.2617188 L86.9951172,329.765625 L86.1279297,329.765625 L86.1279297,326.5136719 C85.2296143,327.7679443 84.0654297,328.7189941 82.6357422,329.3671875 C82.4951172,329.1566162 82.3193359,328.9222412 82.1083984,328.6640625 C83.4523926,328.0861816 84.5422363,327.2856445 85.3779297,326.2617188 L82.8701172,326.2617188 L82.8701172,325.4765625 L83.4208984,323.5195313 L86.1279297,323.5195313 L86.1279297,322.3125 L82.9052734,322.3125 Z M84.3583984,330.140625 L86.8427734,330.1757813 L91.0498047,330.0820313 C90.9172363,330.3947754 90.7883301,330.6954346 90.6630859,330.984375 L86.8427734,331.03125 L84.1708984,330.984375 C82.8272705,330.9689941 81.8505859,330.515625 81.2412109,329.625 C81.0148926,329.8048096 80.5578613,330.3046875 79.8701172,331.125 L79.3662109,330.1289063 C79.8547363,329.6879883 80.3388672,329.262085 80.8193359,328.8515625 L80.8193359,324.7617188 L79.4833984,324.7617188 L79.4833984,323.90625 L81.7333984,323.90625 L81.7333984,329.0273438 C82.3193359,329.7502441 83.1945801,330.1212158 84.3583984,330.140625 Z M89.2451172,322.3125 L86.9951172,322.3125 L86.9951172,323.5195313 L89.2451172,323.5195313 Z M83.7607422,325.4882813 L86.1279297,325.4882813 L86.1279297,324.2929688 L84.0771484,324.2929688 Z M80.5732422,319.8398438 C81.0654297,320.4104004 81.6085205,321.0783691 82.2021484,321.84375 L81.3583984,322.40625 C80.8193359,321.6097412 80.3154297,320.9300537 79.8466797,320.3671875 Z M96.1533203,329.203125 L101.7197266,329.203125 L101.7197266,325.546875 L96.8095703,325.546875 L96.8095703,324.7265625 L101.7197266,324.7265625 L101.7197266,321.5625 L96.5283203,321.5625 L96.5283203,320.71875 L102.6337891,320.71875 L102.6337891,330.8203125 L101.7197266,330.8203125 L101.7197266,330.0234375 L96.1533203,330.0234375 Z M94.9345703,319.8046875 L95.8603516,319.8046875 L95.8603516,324.5742188 C95.8684082,327.871582 95.1964111,330.1252441 93.8447266,331.3359375 C93.6572266,331.0938721 93.4228516,330.8320313 93.1416016,330.5507813 C94.3369141,329.4261475 94.9345703,327.5588379 94.9345703,324.9492188 Z M92.5205078,320.953125 L93.4345703,320.953125 L93.4345703,328.5117188 L92.5205078,328.5117188 Z" style="fill:rgb(112,112,112);stroke:none" clip-path="url(#clip50)" />
<clipPath id="clip51"><path d="M73,182 L595,182 L595,396 L73,396 L73,182 Z" /></clipPath>
<path d="M591.7462769,212 C565,468 77,480 227.6073608,186" style="fill:none;stroke:rgb(0,104,207);stroke-width:3;stroke-dasharray:3,3;stroke-dashoffset:0" clip-path="url(#clip51)" />
<clipPath id="clip52"><path d="M73,413 L595,413 L595,484 L73,484 L73,413 Z" /></clipPath>
<path d="M591.7462769,212 C565,468 77,480 227.6073608,186" style="fill:none;stroke:rgb(0,104,207);stroke-width:3;stroke-dasharray:3,3;stroke-dashoffset:0" clip-path="url(#clip52)" />
<clipPath id="clip53"><path d="M73,394 L330,394 L330,415 L73,415 L73,394 Z" /></clipPath>
<path d="M591.7462769,212 C565,468 77,480 227.6073608,186" style="fill:none;stroke:rgb(0,104,207);stroke-width:3;stroke-dasharray:3,3;stroke-dashoffset:0" clip-path="url(#clip53)" />
<clipPath id="clip54"><path d="M356,394 L595,394 L595,415 L356,415 L356,394 Z" /></clipPath>
<path d="M591.7462769,212 C565,468 77,480 227.6073608,186" style="fill:none;stroke:rgb(0,104,207);stroke-width:3;stroke-dasharray:3,3;stroke-dashoffset:0" clip-path="url(#clip54)" />
<clipPath id="clip55"><path d="M328,394 L358,394 L358,415 L328,415 L328,394 Z" /></clipPath>
<path d="M591.7462769,212 C565,468 77,480 227.6073608,186" style="fill:none;stroke:rgb(0,104,207);opacity:0.09803921568627451;stroke-width:3;stroke-dasharray:3,3;stroke-dashoffset:0" clip-path="url(#clip55)" />
<clipPath id="clip56"><path d="M73,182 L595,182 L595,484 L73,484 L73,182 Z" /></clipPath>
<path d="M228.1089783,195.9874115 L227.6073608,186 L219.2088165,191.4281311" style="fill:none;stroke:rgb(0,104,207);stroke-width:3" clip-path="url(#clip56)" />
<clipPath id="clip57"><path d="M328,394 L358,394 L358,415 L328,415 L328,394 Z" /></clipPath>
<path d="M334.9052734,400.5390625 L337.1083984,400.5390625 C336.7608643,400.1292725 336.3349609,399.6916504 335.8310547,399.2265625 L336.4638672,398.6640625 C336.9718018,399.0939941 337.4211426,399.512207 337.8115234,399.9179688 L337.1318359,400.5390625 L339.7509766,400.5390625 L339.2763672,400.1640625 C339.7216797,399.7114258 340.1358643,399.21521 340.5185547,398.6757813 L341.3037109,399.2148438 C340.9052734,399.6799316 340.5031738,400.121582 340.0966797,400.5390625 L342.1123047,400.5390625 L342.1123047,403.7265625 L341.2451172,403.7265625 L341.2451172,403.2929688 L338.9951172,403.2929688 L338.9951172,404.4882813 L342.6044922,404.4882813 C342.5733643,405.30896 342.5264893,406.0238037 342.4638672,406.6328125 C342.3935547,407.4769287 341.9248047,407.8988037 341.0576172,407.8984375 C340.6357422,407.8988037 340.2255859,407.8947754 339.8271484,407.8867188 C339.772583,407.6135254 339.7062988,407.3088379 339.6279297,406.9726563 C340.0889893,407.012207 340.5302734,407.0316162 340.9521484,407.03125 C341.3586426,407.0239258 341.5772705,406.8283691 341.6083984,406.4453125 C341.647583,406.1018066 341.6750488,405.7073975 341.6904297,405.2617188 L338.9951172,405.2617188 L338.9951172,408.765625 L338.1279297,408.765625 L338.1279297,405.5136719 C337.2296143,406.7679443 336.0654297,407.7189941 334.6357422,408.3671875 C334.4951172,408.1566162 334.3193359,407.9222412 334.1083984,407.6640625 C335.4523926,407.0861816 336.5422363,406.2856445 337.3779297,405.2617188 L334.8701172,405.2617188 L334.8701172,404.4765625 L335.4208984,402.5195313 L338.1279297,402.5195313 L338.1279297,401.3125 L334.9052734,401.3125 Z M336.3583984,409.140625 L338.8427734,409.1757813 L343.0498047,409.0820313 C342.9172363,409.3947754 342.7883301,409.6954346 342.6630859,409.984375 L338.8427734,410.03125 L336.1708984,409.984375 C334.8272705,409.9689941 333.8505859,409.515625 333.2412109,408.625 C333.0148926,408.8048096 332.5578613,409.3046875 331.8701172,410.125 L331.3662109,409.1289063 C331.8547363,408.6879883 332.3388672,408.262085 332.8193359,407.8515625 L332.8193359,403.7617188 L331.4833984,403.7617188 L331.4833984,402.90625 L333.7333984,402.90625 L333.7333984,408.0273438 C334.3193359,408.7502441 335.1945801,409.1212158 336.3583984,409.140625 Z M341.2451172,401.3125 L338.9951172,401.3125 L338.9951172,402.5195313 L341.2451172,402.5195313 Z M335.7607422,404.4882813 L338.1279297,404.4882813 L338.1279297,403.2929688 L336.0771484,403.2929688 Z M332.5732422,398.8398438 C333.0654297,399.4104004 333.6085205,400.0783691 334.2021484,400.84375 L333.3583984,401.40625 C332.8193359,400.6097412 332.3154297,399.9300537 331.8466797,399.3671875 Z M348.1533203,408.203125 L353.7197266,408.203125 L353.7197266,404.546875 L348.8095703,404.546875 L348.8095703,403.7265625 L353.7197266,403.7265625 L353.7197266,400.5625 L348.5283203,400.5625 L348.5283203,399.71875 L354.6337891,399.71875 L354.6337891,409.8203125 L353.7197266,409.8203125 L353.7197266,409.0234375 L348.1533203,409.0234375 Z M346.9345703,398.8046875 L347.8603516,398.8046875 L347.8603516,403.5742188 C347.8684082,406.871582 347.1964111,409.1252441 345.8447266,410.3359375 C345.6572266,410.0938721 345.4228516,409.8320313 345.1416016,409.5507813 C346.3369141,408.4261475 346.9345703,406.5588379 346.9345703,403.9492188 Z M344.5205078,399.953125 L345.4345703,399.953125 L345.4345703,407.5117188 L344.5205078,407.5117188 Z" style="fill:rgb(112,112,112);stroke:none" clip-path="url(#clip57)" />
</svg>
