<svg t="1503200067393" class="icon" style="" viewBox="0 0 1024 1024" version="1.1"
     xmlns="http://www.w3.org/2000/svg" p-id="2323" xmlns:xlink="http://www.w3.org/1999/xlink"
     width="16" height="16">
    <defs>
        <style type="text/css"></style>
    </defs>
    <path
            d="M905.2095 206.900234c-87.591941-84.118839-216.174458-72.356958-216.174458-72.356958-15.810081 0.319272-28.629038 13.410428-28.629038 29.359678l0 14.2127c0 15.897062 12.759605 28.04166 29.03529 27.76332 0 0 123.395378-13.097296 175.956478 63.518662 52.552913 76.615958 29.846772 172.754552 29.846772 172.754552-2.411933 15.693424 8.479115 28.418236 24.541953 28.418236l12.260232 0c15.966647 0 30.729885-12.68388 32.450063-28.523637C964.498838 442.046788 992.800417 291.016003 905.2095 206.900234L905.2095 206.900234z"
            p-id="2324"></path>
    <path
            d="M803.345508 436.595636l17.372669 0c10.604522 0 20.883633-8.31027 22.596647-18.989493 0 0 20.475334-79.68383-27.296693-123.358539-47.777143-43.676755-110.211101-27.744901-110.211101-27.744901-10.471492 1.598404-18.97005 11.528568-18.97005 22.084994l0 7.494695c0 10.604522 8.483208 18.557658 19.436678 18.23941 0 0 52.40351-7.129374 77.892021 23.601534 25.484418 30.738072 5.531993 80.44517 5.531993 80.44517C786.634918 428.437839 792.882202 436.595636 803.345508 436.595636L803.345508 436.595636z"
            p-id="2325"></path>
    <path
            d="M395.210064 515.180436c-86.011956 16.717753-144.265708 89.281419-130.117476 162.080445 14.153348 72.792886 95.347578 118.253264 181.354418 101.535511 86.009909-16.72287 144.276964-89.288582 130.123616-162.086585C562.421366 543.917944 481.227136 498.457566 395.210064 515.180436L395.210064 515.180436zM388.155391 706.627722c-26.470885 12.341073-55.552224 6.007831-64.953338-14.153348-9.402137-20.169365 4.433986-46.518476 30.90487-58.859549 26.471908-12.348236 55.555294-6.007831 64.960501 14.153348C428.456259 667.936515 414.633439 694.28665 388.155391 706.627722L388.155391 706.627722zM448.856891 645.36852c-14.594393 0-26.431999-12.023848-26.431999-26.854625 0-14.829753 11.835559-26.857694 26.431999-26.857694 14.614859 0 26.453489 12.028964 26.453489 26.857694C475.309356 633.346719 463.469704 645.36852 448.856891 645.36852L448.856891 645.36852z"
            p-id="2326"></path>
    <path
            d="M715.679889 485.130026c0-8.087189 76.927043-80.879052 0-126.176724-76.92909-45.292556-217.655182 23.570835-213.438137 16.175401 60.525492-105.731066-25.965371-139.111315-70.061682-139.111315-105.133456 0-379.945405 234.181577-379.945405 382.496507 0 148.315954 183.496198 268.555455 409.844366 268.555455 226.353284 0 408.096559-120.240525 408.096559-268.555455C870.176612 493.217215 715.679889 493.217215 715.679889 485.130026L715.679889 485.130026zM473.15018 804.799626c-144.601352 20.323884-272.714172-40.59251-286.131763-136.055722-13.417591-95.470375 92.935646-189.337229 237.544161-209.661114 144.625912-20.323884 272.721335 40.590464 286.144042 136.060839C724.128305 690.607864 617.775069 784.473695 473.15018 804.799626L473.15018 804.799626z"
            p-id="2327"></path>
</svg>